<?xml version="1.0" encoding="UTF-8"?>
<svg version="1.1" xmlns="http://www.w3.org/2000/svg" width="512" height="512">
<path d="M0 0 C1.01707031 0.41894531 2.03414063 0.83789062 3.08203125 1.26953125 C4.10683594 1.67558594 5.13164063 2.08164063 6.1875 2.5 C9.8069305 4.61525159 11.23040453 6.97358199 12.47705078 10.93139648 C12.95616688 13.39954484 12.9111774 15.55647925 12.7734375 18.06640625 C12.72509766 19.00097656 12.67675781 19.93554688 12.62695312 20.8984375 C12.57087891 21.86652344 12.51480469 22.83460938 12.45703125 23.83203125 C12.40482422 24.81558594 12.35261719 25.79914063 12.29882812 26.8125 C12.16941688 29.23601974 12.0344622 31.65909989 11.89453125 34.08203125 C12.838125 34.05882812 13.78171875 34.035625 14.75390625 34.01171875 C23.0578804 33.89499622 30.72147276 34.45217825 38.89453125 36.08203125 C41.78529162 36.5826447 44.67025656 37.05199738 47.578125 37.44140625 C55.34669478 38.54333104 62.56727478 40.72442315 69.92822266 43.37451172 C71.89585786 44.08250859 73.86948684 44.77167464 75.84375 45.4609375 C84.96213884 48.70432369 93.56832991 52.65560015 102.13134766 57.15771484 C103.67367112 57.96624941 105.22664667 58.75439803 106.78125 59.5390625 C120.40180533 66.60383484 132.42164007 75.98399066 143.89453125 86.08203125 C144.66539062 86.73042969 145.43625 87.37882812 146.23046875 88.046875 C150.94159128 92.02696128 154.91377835 96.38301207 158.89453125 101.08203125 C160.30661292 102.69023537 161.72332874 104.29438171 163.14453125 105.89453125 C164.11132812 106.98701172 164.11132812 106.98701172 165.09765625 108.1015625 C166.65227501 109.81502275 168.24121273 111.46443258 169.89453125 113.08203125 C170.13816406 112.52 170.38179688 111.95796875 170.6328125 111.37890625 C172.13634061 108.6418334 173.96152873 106.62407184 176.08203125 104.33203125 C178.87524665 101.29457603 181.61670006 98.24230473 184.26953125 95.08203125 C199.99324764 77.12237354 221.0343418 64.21113496 241.89453125 53.08203125 C242.89226562 52.54835938 243.89 52.0146875 244.91796875 51.46484375 C268.61504257 39.71160338 296.51330919 33.48620039 322.89453125 33.08203125 C322.87132812 32.4271875 322.848125 31.77234375 322.82421875 31.09765625 C322.61056381 20.29282091 323.10972496 9.72564893 330.33203125 1.20703125 C334.10090006 -1.59427955 337.82469541 -1.86091895 342.42578125 -1.64453125 C354.76342066 0.93970403 365.01732934 10.08947236 374.05615234 18.40087891 C375.4129022 19.64159332 376.78239137 20.8684107 378.15869141 22.08740234 C384.52156094 27.73287115 390.54964698 33.64986797 396.51953125 39.70703125 C401.91745258 45.18318332 407.28695278 50.59485845 413.17358398 55.54931641 C418.20694743 60.03214457 421.31943571 63.86149625 422.51953125 70.58203125 C422.41382905 78.81170269 413.68571618 85.3626685 408.26953125 90.76953125 C407.51929688 91.50042969 406.7690625 92.23132813 405.99609375 92.984375 C404.10789719 94.8690619 402.36840305 96.79820221 400.64453125 98.83203125 C393.14831468 107.55140671 384.76583797 115.77085089 375.89453125 123.08203125 C375.37697266 123.51870117 374.85941406 123.95537109 374.32617188 124.40527344 C350.42157865 144.5291735 350.42157865 144.5291735 334.78125 144.359375 C331.89453125 144.08203125 331.89453125 144.08203125 328.83203125 142.45703125 C323.01372423 135.32491297 322.73510308 128.00512653 322.83203125 119.20703125 C322.83654297 118.42328125 322.84105469 117.63953125 322.84570312 116.83203125 C322.85739032 114.91533111 322.87532217 112.99867077 322.89453125 111.08203125 C298.3197819 114.17905397 275.12751946 120.67826419 255.89453125 137.08203125 C255.03730469 137.80132812 254.18007813 138.520625 253.296875 139.26171875 C229.17228296 160.21692853 214.31700749 188.44295254 209.89453125 220.08203125 C209.67969988 223.64898476 209.70429263 227.19002306 209.76953125 230.76171875 C209.77710449 231.73634064 209.78467773 232.71096252 209.79248047 233.71511841 C209.82473646 237.82771607 209.88105284 241.93989268 209.93554688 246.05224609 C210.35153769 280.49737994 210.35153769 280.49737994 201.29296875 290.92578125 C191.94371871 299.6346717 179.89770753 299.26864906 167.8371582 299.26733398 C165.59892593 299.26951479 163.36119183 299.2876879 161.12304688 299.30664062 C141.6918901 299.38518373 141.6918901 299.38518373 134.39453125 293.625 C126.91516846 285.93138463 126.60659102 274.58763261 126.5859375 264.5234375 C126.56075559 262.25715913 126.53535793 259.99088315 126.50976562 257.72460938 C126.48121309 254.19702913 126.45716521 250.66949076 126.43823242 247.1418457 C126.19006652 208.35978817 116.27794898 173.80472812 88.45166016 145.62060547 C68.28517846 125.83054618 41.83828572 113.57970173 13.89453125 110.08203125 C13.85714844 111.06042969 13.81976563 112.03882813 13.78125 113.046875 C12.92292242 130.1629368 12.92292242 130.1629368 7.76953125 136.83203125 C3.12424212 140.46747492 -1.44466825 143.67267733 -7.35546875 144.58203125 C-10.53434859 144.0040531 -12.35324493 142.75904226 -15.10546875 141.08203125 C-16.97606345 140.19765267 -18.851349 139.32314844 -20.73046875 138.45703125 C-32.63618998 132.55542528 -41.77555316 123.04252243 -50.328125 113.07421875 C-52.69600193 110.42011494 -55.23621357 107.96945922 -57.8203125 105.52734375 C-59.10546875 104.08203125 -59.10546875 104.08203125 -59.10546875 102.08203125 C-59.6571875 101.84871094 -60.20890625 101.61539063 -60.77734375 101.375 C-63.71802142 99.74183841 -65.89624126 97.68863918 -68.35546875 95.39453125 C-71.67821803 92.30246683 -75.02103274 89.31819127 -78.54296875 86.45703125 C-82.7582113 82.75351568 -85.84238342 78.7247512 -86.2578125 72.97265625 C-85.84675014 67.36534406 -83.69320218 64.35630212 -79.58984375 60.75 C-78.29935155 59.64185996 -77.00752649 58.53527142 -75.71484375 57.4296875 C-67.62173133 50.14830941 -59.87599227 42.32427957 -52.82421875 34.03125 C-42.93846519 22.81990676 -31.55622008 13.31717386 -19.10546875 5.08203125 C-18.23535156 4.499375 -17.36523438 3.91671875 -16.46875 3.31640625 C-15.17517578 2.48882812 -15.17517578 2.48882812 -13.85546875 1.64453125 C-12.70304687 0.90396484 -12.70304687 0.90396484 -11.52734375 0.1484375 C-7.43064722 -1.65543049 -4.22882891 -1.25003119 0 0 Z M343.89453125 11.08203125 C344.22453125 11.74203125 344.55453125 12.40203125 344.89453125 13.08203125 C345.55453125 12.42203125 346.21453125 11.76203125 346.89453125 11.08203125 C345.90453125 11.08203125 344.91453125 11.08203125 343.89453125 11.08203125 Z M336.89453125 28.08203125 C335.6788516 30.71391503 335.51625311 32.18644892 335.78125 35.0390625 C335.92175248 37.57295214 335.16054342 38.92350475 333.89453125 41.08203125 C337.60350384 39.68785757 340.97291437 38.00384646 344.4140625 36.04296875 C345.43564453 35.46289062 346.45722656 34.8828125 347.50976562 34.28515625 C348.56486328 33.681875 349.61996094 33.07859375 350.70703125 32.45703125 C351.78146484 31.84601563 352.85589844 31.235 353.96289062 30.60546875 C356.60839201 29.1004724 359.25219375 27.59257334 361.89453125 26.08203125 C361.11078125 25.29828125 360.32703125 24.51453125 359.51953125 23.70703125 C357.97786458 22.16536458 356.43619792 20.62369792 354.89453125 19.08203125 C348.73844894 19.08203125 341.48913708 24.02282356 336.89453125 28.08203125 Z M-1.10546875 19.08203125 C-2.42546875 20.40203125 -3.74546875 21.72203125 -5.10546875 23.08203125 C-3.45546875 22.42203125 -1.80546875 21.76203125 -0.10546875 21.08203125 C-0.43546875 20.42203125 -0.76546875 19.76203125 -1.10546875 19.08203125 Z M-7.10546875 23.08203125 C-7.43546875 23.74203125 -7.76546875 24.40203125 -8.10546875 25.08203125 C-7.11546875 24.75203125 -6.12546875 24.42203125 -5.10546875 24.08203125 C-5.76546875 23.75203125 -6.42546875 23.42203125 -7.10546875 23.08203125 Z M367.89453125 33.08203125 C365.91453125 34.40203125 363.93453125 35.72203125 361.89453125 37.08203125 C362.88453125 37.57703125 362.88453125 37.57703125 363.89453125 38.08203125 C365.87453125 36.76203125 367.85453125 35.44203125 369.89453125 34.08203125 C369.23453125 33.75203125 368.57453125 33.42203125 367.89453125 33.08203125 Z M-2.10546875 35.08203125 C-3.42546875 36.40203125 -4.74546875 37.72203125 -6.10546875 39.08203125 C-4.45546875 38.42203125 -2.80546875 37.76203125 -1.10546875 37.08203125 C-1.43546875 36.42203125 -1.76546875 35.76203125 -2.10546875 35.08203125 Z M359.89453125 38.08203125 C359.56453125 38.74203125 359.23453125 39.40203125 358.89453125 40.08203125 C359.88453125 39.75203125 360.87453125 39.42203125 361.89453125 39.08203125 C361.23453125 38.75203125 360.57453125 38.42203125 359.89453125 38.08203125 Z M376.89453125 41.08203125 C376.56453125 41.74203125 376.23453125 42.40203125 375.89453125 43.08203125 C376.88453125 42.75203125 377.87453125 42.42203125 378.89453125 42.08203125 C378.23453125 41.75203125 377.57453125 41.42203125 376.89453125 41.08203125 Z M328.89453125 42.08203125 C326.54484053 43.28376899 326.54484053 43.28376899 324.20703125 45.01953125 C322.99466797 45.86837891 322.99466797 45.86837891 321.7578125 46.734375 C320.83548828 47.40146484 320.83548828 47.40146484 319.89453125 48.08203125 C320.88453125 48.57703125 320.88453125 48.57703125 321.89453125 49.08203125 C324.38071826 47.85916407 324.38071826 47.85916407 327.01953125 46.14453125 C327.92960937 45.57863281 328.8396875 45.01273438 329.77734375 44.4296875 C330.82535156 43.76259766 330.82535156 43.76259766 331.89453125 43.08203125 C330.90453125 42.75203125 329.91453125 42.42203125 328.89453125 42.08203125 Z M302.89453125 44.08203125 C302.56453125 44.74203125 302.23453125 45.40203125 301.89453125 46.08203125 C303.21453125 45.42203125 304.53453125 44.76203125 305.89453125 44.08203125 C304.90453125 44.08203125 303.91453125 44.08203125 302.89453125 44.08203125 Z M299.89453125 46.08203125 C299.56453125 46.74203125 299.23453125 47.40203125 298.89453125 48.08203125 C299.88453125 47.75203125 300.87453125 47.42203125 301.89453125 47.08203125 C301.23453125 46.75203125 300.57453125 46.42203125 299.89453125 46.08203125 Z M49.33203125 54.26953125 C48.67267578 54.76517578 48.01332031 55.26082031 47.33398438 55.77148438 C43.95274067 58.34394818 40.80871365 60.97505307 37.89453125 64.08203125 C42.9266809 62.28191268 47.48714143 59.66947004 52.14453125 57.08203125 C52.97210938 56.63085938 53.7996875 56.1796875 54.65234375 55.71484375 C55.43867188 55.27914062 56.225 54.8434375 57.03515625 54.39453125 C57.75219727 53.99878906 58.46923828 53.60304688 59.20800781 53.1953125 C61.05493308 52.17796954 61.05493308 52.17796954 61.89453125 50.08203125 C56.4119256 47.85307211 53.50903361 50.9878942 49.33203125 54.26953125 Z M70.12890625 57.625 C69.4107373 58.19911621 68.69256836 58.77323242 67.95263672 59.36474609 C67.19096191 59.9933252 66.42928711 60.6219043 65.64453125 61.26953125 C64.0388343 62.55863044 62.43203926 63.84636288 60.82421875 65.1328125 C60.00920898 65.78975098 59.19419922 66.44668945 58.35449219 67.12353516 C54.55355168 70.14965115 50.66701854 73.05697784 46.76953125 75.95703125 C46.07698242 76.47418701 45.38443359 76.99134277 44.67089844 77.52416992 C43.07994361 78.71168953 41.48743119 79.89712203 39.89453125 81.08203125 C40.55453125 81.41203125 41.21453125 81.74203125 41.89453125 82.08203125 C44.65774716 80.80646659 44.65774716 80.80646659 47.79296875 78.92578125 C48.38316803 78.5858313 48.97336731 78.24588135 49.58145142 77.89562988 C51.48192214 76.7985759 53.37569921 75.69049841 55.26953125 74.58203125 C56.50738968 73.86515483 57.74566683 73.1490009 58.984375 72.43359375 C62.02948584 70.67230382 65.06910536 68.90181377 68.10632324 67.12695312 C69.8986803 66.0796068 71.69188289 65.03372275 73.48535156 63.98828125 C76.28893099 62.35375243 79.09197537 60.71831417 81.89453125 59.08203125 C77.50972345 55.48022484 74.82213774 53.79363172 70.12890625 57.625 Z M258.70703125 57.08203125 C258.10890625 57.74203125 257.51078125 58.40203125 256.89453125 59.08203125 C258.91498567 58.48019376 260.91564164 57.80897029 262.89453125 57.08203125 C263.22453125 56.42203125 263.55453125 55.76203125 263.89453125 55.08203125 C260.76954959 54.74464665 260.76954959 54.74464665 258.70703125 57.08203125 Z M391.734375 59.70703125 C390.79174805 60.51914062 390.79174805 60.51914062 389.83007812 61.34765625 C389.17072266 61.92 388.51136719 62.49234375 387.83203125 63.08203125 C386.83719727 63.94054687 386.83719727 63.94054687 385.82226562 64.81640625 C384.17778329 66.23610323 382.53531444 67.65806246 380.89453125 69.08203125 C381.88453125 69.57703125 381.88453125 69.57703125 382.89453125 70.08203125 C385.51241768 68.67307889 388.00498797 67.21960034 390.51953125 65.64453125 C391.57914062 64.99387695 391.57914062 64.99387695 392.66015625 64.33007812 C394.40936693 63.25454993 396.15252779 62.169194 397.89453125 61.08203125 C397.23453125 59.76203125 396.57453125 58.44203125 395.89453125 57.08203125 C394.12262066 57.08203125 393.02606627 58.58989286 391.734375 59.70703125 Z M254.89453125 59.08203125 C254.56453125 59.74203125 254.23453125 60.40203125 253.89453125 61.08203125 C254.88453125 60.75203125 255.87453125 60.42203125 256.89453125 60.08203125 C256.23453125 59.75203125 255.57453125 59.42203125 254.89453125 59.08203125 Z M35.89453125 64.08203125 C35.56453125 64.74203125 35.23453125 65.40203125 34.89453125 66.08203125 C35.88453125 65.75203125 36.87453125 65.42203125 37.89453125 65.08203125 C37.23453125 64.75203125 36.57453125 64.42203125 35.89453125 64.08203125 Z M91.89453125 64.08203125 C91.56453125 64.74203125 91.23453125 65.40203125 90.89453125 66.08203125 C91.88453125 65.75203125 92.87453125 65.42203125 93.89453125 65.08203125 C93.23453125 64.75203125 92.57453125 64.42203125 91.89453125 64.08203125 Z M-63.10546875 68.08203125 C-65.1346172 69.07570923 -65.1346172 69.07570923 -67.23046875 70.51953125 C-67.95492187 70.99261719 -68.679375 71.46570313 -69.42578125 71.953125 C-69.98007813 72.32566406 -70.534375 72.69820313 -71.10546875 73.08203125 C-70.77546875 74.07203125 -70.44546875 75.06203125 -70.10546875 76.08203125 C-67.13546875 73.77203125 -64.16546875 71.46203125 -61.10546875 69.08203125 C-61.76546875 68.75203125 -62.42546875 68.42203125 -63.10546875 68.08203125 Z M405.89453125 68.08203125 C404.57453125 69.40203125 403.25453125 70.72203125 401.89453125 72.08203125 C403.54453125 71.42203125 405.19453125 70.76203125 406.89453125 70.08203125 C406.56453125 69.42203125 406.23453125 68.76203125 405.89453125 68.08203125 Z M99.76953125 74.58203125 C99.04507813 75.23171875 98.320625 75.88140625 97.57421875 76.55078125 C97.01992187 77.05609375 96.465625 77.56140625 95.89453125 78.08203125 C99.3077436 78.08203125 100.2892601 77.41335659 103.08203125 75.58203125 C103.79746094 75.11796875 104.51289063 74.65390625 105.25 74.17578125 C105.79269531 73.81484375 106.33539063 73.45390625 106.89453125 73.08203125 C106.56453125 72.42203125 106.23453125 71.76203125 105.89453125 71.08203125 C102.95098768 71.08203125 101.91874288 72.64080784 99.76953125 74.58203125 Z M114.2109375 81.47265625 C113.63214844 82.08625 113.05335938 82.69984375 112.45703125 83.33203125 C111.84859375 83.96753906 111.24015625 84.60304688 110.61328125 85.2578125 C110.04609375 85.85980469 109.47890625 86.46179688 108.89453125 87.08203125 C107.56119792 88.41536458 106.22786458 89.74869792 104.89453125 91.08203125 C108.68502832 89.65453144 112.16575581 87.91966583 115.70703125 85.95703125 C116.68285156 85.41820312 117.65867188 84.879375 118.6640625 84.32421875 C119.40011719 83.91429687 120.13617188 83.504375 120.89453125 83.08203125 C120.23453125 82.09203125 119.57453125 81.10203125 118.89453125 80.08203125 C115.91608961 79.76361364 115.91608961 79.76361364 114.2109375 81.47265625 Z M343.89453125 85.08203125 C341.37380165 86.22767211 341.37380165 86.22767211 338.5546875 87.94140625 C337.49185547 88.56273437 336.42902344 89.1840625 335.33398438 89.82421875 C333.66239258 90.81808594 333.66239258 90.81808594 331.95703125 91.83203125 C330.84650391 92.47914063 329.73597656 93.12625 328.59179688 93.79296875 C322.28574847 97.34261599 322.28574847 97.34261599 316.89453125 102.08203125 C322.5787706 102.41931596 327.15396098 102.29617422 331.9296875 98.96484375 C334.6788823 96.41607168 337.29689991 93.78423712 339.89453125 91.08203125 C341.10518454 90.01890438 342.33022328 88.97137682 343.58203125 87.95703125 C344.34515625 87.33828125 345.10828125 86.71953125 345.89453125 86.08203125 C345.23453125 85.75203125 344.57453125 85.42203125 343.89453125 85.08203125 Z M127.30859375 91.47265625 C126.71820313 92.08625 126.1278125 92.69984375 125.51953125 93.33203125 C124.90207031 93.96753906 124.28460938 94.60304688 123.6484375 95.2578125 C123.06964844 95.85980469 122.49085938 96.46179688 121.89453125 97.08203125 C120.56119792 98.41536458 119.22786458 99.74869792 117.89453125 101.08203125 C121.59329216 99.70915783 124.84597885 98.01847672 128.20703125 95.95703125 C129.53154297 95.14878906 129.53154297 95.14878906 130.8828125 94.32421875 C131.54667969 93.91429687 132.21054688 93.504375 132.89453125 93.08203125 C132.23453125 92.09203125 131.57453125 91.10203125 130.89453125 90.08203125 C128.79361495 89.86226761 128.79361495 89.86226761 127.30859375 91.47265625 Z M-22.10546875 94.08203125 C-25.13243969 95.36359502 -27.90735282 97.15466042 -30.73046875 98.83203125 C-31.53226563 99.28835938 -32.3340625 99.7446875 -33.16015625 100.21484375 C-33.918125 100.66085937 -34.67609375 101.106875 -35.45703125 101.56640625 C-36.15650879 101.97600586 -36.85598633 102.38560547 -37.57666016 102.80761719 C-38.33342041 103.43845215 -38.33342041 103.43845215 -39.10546875 104.08203125 C-39.10546875 105.07203125 -39.10546875 106.06203125 -39.10546875 107.08203125 C-35.62856126 107.08203125 -34.99254823 106.51530829 -32.3125 104.45703125 C-31.60029297 103.915625 -30.88808594 103.37421875 -30.15429688 102.81640625 C-29.41630859 102.2440625 -28.67832031 101.67171875 -27.91796875 101.08203125 C-27.16837891 100.5096875 -26.41878906 99.93734375 -25.64648438 99.34765625 C-23.7944764 97.93210876 -21.94783326 96.51009321 -20.10546875 95.08203125 C-20.76546875 94.75203125 -21.42546875 94.42203125 -22.10546875 94.08203125 Z M-1.10546875 98.08203125 C-3.29299199 99.1418097 -5.33719449 100.25253463 -7.42578125 101.484375 C-8.04444061 101.84092667 -8.66309998 102.19747833 -9.30050659 102.56483459 C-11.28160505 103.70891591 -13.25600448 104.86404542 -15.23046875 106.01953125 C-16.56988713 106.79565644 -17.90972581 107.57105675 -19.25 108.34570312 C-22.54009801 110.24942578 -25.82422927 112.16308364 -29.10546875 114.08203125 C-29.10546875 115.07203125 -29.10546875 116.06203125 -29.10546875 117.08203125 C-27.78546875 117.74203125 -26.46546875 118.40203125 -25.10546875 119.08203125 C-24.2340625 118.39238281 -23.36265625 117.70273437 -22.46484375 116.9921875 C-14.75987453 110.90845863 -6.9905098 104.93082543 0.89453125 99.08203125 C0.23453125 98.75203125 -0.42546875 98.42203125 -1.10546875 98.08203125 Z M54.89453125 98.08203125 C52.44414832 99.32485137 50.12120625 100.61085464 47.76953125 102.01953125 C47.11082031 102.40560547 46.45210937 102.79167969 45.7734375 103.18945312 C44.14291825 104.14649703 42.51816941 105.1133594 40.89453125 106.08203125 C43.55755461 108.29558805 43.55755461 108.29558805 45.78515625 107.9609375 C48.59676227 106.78943499 50.41515261 105.08498499 52.64453125 103.01953125 C53.44375 102.28605469 54.24296875 101.55257812 55.06640625 100.796875 C55.97132813 99.94802734 55.97132813 99.94802734 56.89453125 99.08203125 C56.23453125 98.75203125 55.57453125 98.42203125 54.89453125 98.08203125 Z M29.89453125 99.08203125 C29.56453125 99.74203125 29.23453125 100.40203125 28.89453125 101.08203125 C29.88453125 100.75203125 30.87453125 100.42203125 31.89453125 100.08203125 C31.23453125 99.75203125 30.57453125 99.42203125 29.89453125 99.08203125 Z M25.26953125 102.58203125 C24.81578125 103.07703125 24.36203125 103.57203125 23.89453125 104.08203125 C25.8698987 103.73416417 25.8698987 103.73416417 27.89453125 103.08203125 C28.22453125 102.42203125 28.55453125 101.76203125 28.89453125 101.08203125 C26.77088644 100.85593788 26.77088644 100.85593788 25.26953125 102.58203125 Z M140.89453125 101.08203125 C137.92453125 103.72203125 134.95453125 106.36203125 131.89453125 109.08203125 C132.88453125 109.57703125 132.88453125 109.57703125 133.89453125 110.08203125 C136.38071826 108.85916407 136.38071826 108.85916407 139.01953125 107.14453125 C139.92960938 106.57863281 140.8396875 106.01273437 141.77734375 105.4296875 C142.82535156 104.76259766 142.82535156 104.76259766 143.89453125 104.08203125 C142.90453125 103.09203125 141.91453125 102.10203125 140.89453125 101.08203125 Z M73.89453125 103.08203125 C71.45793599 104.27817802 69.16450714 105.52016111 66.83203125 106.89453125 C66.18169922 107.26384766 65.53136719 107.63316406 64.86132812 108.01367188 C61.27854141 109.93471593 61.27854141 109.93471593 58.89453125 113.08203125 C61.36953125 114.07203125 61.36953125 114.07203125 63.89453125 115.08203125 C67.85453125 111.45203125 71.81453125 107.82203125 75.89453125 104.08203125 C75.23453125 103.75203125 74.57453125 103.42203125 73.89453125 103.08203125 Z M89.89453125 111.08203125 C87.27664482 112.49098361 84.78407453 113.94446216 82.26953125 115.51953125 C81.563125 115.95330078 80.85671875 116.38707031 80.12890625 116.83398438 C78.37969557 117.90951257 76.63653471 118.9948685 74.89453125 120.08203125 C75.88453125 121.07203125 76.87453125 122.06203125 77.89453125 123.08203125 C81.60498372 121.50422202 84.19359509 119.17499877 87.14453125 116.45703125 C88.48257813 115.23113281 88.48257813 115.23113281 89.84765625 113.98046875 C90.523125 113.35398437 91.19859375 112.7275 91.89453125 112.08203125 C91.23453125 111.75203125 90.57453125 111.42203125 89.89453125 111.08203125 Z M350.89453125 113.08203125 C348.25772389 114.39450952 345.78750689 115.75735215 343.26953125 117.26953125 C342.563125 117.66978516 341.85671875 118.07003906 341.12890625 118.48242188 C340.12730469 119.07893555 340.12730469 119.07893555 339.10546875 119.6875 C338.48978027 120.04996826 337.8740918 120.41243652 337.23974609 120.78588867 C336.7958252 121.21361572 336.3519043 121.64134277 335.89453125 122.08203125 C335.89453125 123.40203125 335.89453125 124.72203125 335.89453125 126.08203125 C339.94667304 124.33680187 343.20057086 121.65921555 346.64453125 118.95703125 C347.54751953 118.25513672 347.54751953 118.25513672 348.46875 117.5390625 C349.94639741 116.38978118 351.4207913 115.2363189 352.89453125 114.08203125 C352.23453125 113.75203125 351.57453125 113.42203125 350.89453125 113.08203125 Z M157.89453125 121.08203125 C154.59453125 124.38203125 151.29453125 127.68203125 147.89453125 131.08203125 C148.88453125 131.57703125 148.88453125 131.57703125 149.89453125 132.08203125 C152.38424147 130.97277877 152.38424147 130.97277877 155.01953125 129.33203125 C155.92960938 128.8009375 156.8396875 128.26984375 157.77734375 127.72265625 C158.47601563 127.18125 159.1746875 126.63984375 159.89453125 126.08203125 C159.89453125 125.09203125 159.89453125 124.10203125 159.89453125 123.08203125 C159.23453125 122.42203125 158.57453125 121.76203125 157.89453125 121.08203125 Z M100.89453125 122.08203125 C97.95088642 123.53409753 97.95088642 123.53409753 94.76953125 125.51953125 C93.67382812 126.17824219 92.578125 126.83695312 91.44921875 127.515625 C90.60617188 128.03253906 89.763125 128.54945313 88.89453125 129.08203125 C90.21453125 130.40203125 91.53453125 131.72203125 92.89453125 133.08203125 C96.19453125 129.78203125 99.49453125 126.48203125 102.89453125 123.08203125 C102.23453125 122.75203125 101.57453125 122.42203125 100.89453125 122.08203125 Z M115.26953125 144.08203125 C114.65851563 144.46359375 114.0475 144.84515625 113.41796875 145.23828125 C111.90766388 146.18222179 110.40076997 147.13161583 108.89453125 148.08203125 C109.88453125 149.40203125 110.87453125 150.72203125 111.89453125 152.08203125 C113.52319669 150.64868547 115.14734119 149.21020146 116.76953125 147.76953125 C117.67445313 146.96902344 118.579375 146.16851562 119.51171875 145.34375 C122.02665436 143.12392068 122.02665436 143.12392068 123.89453125 140.08203125 C120.55449508 140.08203125 118.02127874 142.34160976 115.26953125 144.08203125 Z M195.89453125 158.08203125 C195.56453125 158.74203125 195.23453125 159.40203125 194.89453125 160.08203125 C195.88453125 159.75203125 196.87453125 159.42203125 197.89453125 159.08203125 C197.23453125 158.75203125 196.57453125 158.42203125 195.89453125 158.08203125 Z M192.89453125 160.08203125 C190.18070543 161.3244679 190.18070543 161.3244679 187.1015625 163.16796875 C186.23332603 163.66676796 186.23332603 163.66676796 185.34754944 164.17564392 C183.46260692 165.26141679 181.58471108 166.35875389 179.70703125 167.45703125 C178.42557678 168.19995264 177.14383841 168.94238458 175.86181641 169.68432617 C173.34205021 171.14503138 170.82555119 172.61112605 168.31201172 174.08251953 C165.47026199 175.74518064 162.62319408 177.39800737 159.7734375 179.046875 C153.05086731 182.66813977 153.05086731 182.66813977 147.89453125 188.08203125 C149.65696667 188.85042655 149.65696667 188.85042655 151.89453125 189.08203125 C154.24924843 188.0452226 154.24924843 188.0452226 156.61328125 186.35546875 C157.99858032 185.43423218 157.99858032 185.43423218 159.41186523 184.49438477 C160.39614502 183.82205811 161.3804248 183.14973145 162.39453125 182.45703125 C164.45809025 181.07776125 166.52189746 179.69886254 168.5859375 178.3203125 C170.15432373 177.26384521 170.15432373 177.26384521 171.75439453 176.18603516 C176.57961089 172.95296763 181.45537458 169.79922977 186.33203125 166.64453125 C187.99761347 165.56283504 189.66299986 164.48083719 191.328125 163.3984375 C192.51690934 162.62627477 193.70570389 161.85412776 194.89453125 161.08203125 C194.23453125 160.75203125 193.57453125 160.42203125 192.89453125 160.08203125 Z M126.26953125 166.08203125 C125.15578125 166.74203125 124.04203125 167.40203125 122.89453125 168.08203125 C123.22453125 169.07203125 123.55453125 170.06203125 123.89453125 171.08203125 C127.68974435 169.59105467 129.50495856 167.32502276 131.89453125 164.08203125 C129.43151702 164.08203125 128.37389847 164.83499882 126.26953125 166.08203125 Z M155.89453125 198.08203125 C153.50705261 199.15984316 153.50705261 199.15984316 150.95703125 200.76953125 C150.08175781 201.28902344 149.20648438 201.80851563 148.3046875 202.34375 C145.92754887 204.0582179 144.4990107 205.65148317 142.89453125 208.08203125 C143.22453125 208.74203125 143.55453125 209.40203125 143.89453125 210.08203125 C148.51453125 206.45203125 153.13453125 202.82203125 157.89453125 199.08203125 C157.23453125 198.75203125 156.57453125 198.42203125 155.89453125 198.08203125 Z M193.89453125 223.08203125 C193.56453125 223.74203125 193.23453125 224.40203125 192.89453125 225.08203125 C193.55453125 225.08203125 194.21453125 225.08203125 194.89453125 225.08203125 C194.56453125 224.42203125 194.23453125 223.76203125 193.89453125 223.08203125 Z M140.89453125 236.08203125 C140.56453125 236.74203125 140.23453125 237.40203125 139.89453125 238.08203125 C140.88453125 237.75203125 141.87453125 237.42203125 142.89453125 237.08203125 C142.23453125 236.75203125 141.57453125 236.42203125 140.89453125 236.08203125 Z M193.89453125 239.08203125 C192.57453125 240.40203125 191.25453125 241.72203125 189.89453125 243.08203125 C191.54453125 242.42203125 193.19453125 241.76203125 194.89453125 241.08203125 C194.56453125 240.42203125 194.23453125 239.76203125 193.89453125 239.08203125 Z M139.89453125 251.08203125 C140.22453125 252.07203125 140.55453125 253.06203125 140.89453125 254.08203125 C142.54453125 252.43203125 144.19453125 250.78203125 145.89453125 249.08203125 C143.43174324 249.08203125 142.04229006 249.93655988 139.89453125 251.08203125 Z M140.89453125 267.08203125 C140.89453125 267.74203125 140.89453125 268.40203125 140.89453125 269.08203125 C144.05568901 267.71219622 144.88724045 267.09296745 146.89453125 264.08203125 C144.09544992 264.08203125 142.96730752 265.28562515 140.89453125 267.08203125 Z M163.89453125 280.08203125 C160.94818831 281.45836126 160.94818831 281.45836126 157.76953125 283.39453125 C156.67382812 284.03003906 155.578125 284.66554688 154.44921875 285.3203125 C153.60617188 285.90167969 152.763125 286.48304688 151.89453125 287.08203125 C151.89453125 287.74203125 151.89453125 288.40203125 151.89453125 289.08203125 C154.55169631 289.75768631 154.55169631 289.75768631 157.89453125 289.08203125 C160.84823247 286.66825391 163.3784279 283.94298126 165.89453125 281.08203125 C165.23453125 280.75203125 164.57453125 280.42203125 163.89453125 280.08203125 Z M177.89453125 289.08203125 C180.33170383 288.81168491 180.33170383 288.81168491 182.89453125 288.08203125 C183.55453125 287.09203125 184.21453125 286.10203125 184.89453125 285.08203125 C181.761297 285.08203125 180.21432341 287.12852206 177.89453125 289.08203125 Z " fill="#272726" transform="translate(88.10546875,209.91796875)"/>
<path d="M0 0 C3.34533609 0.51805306 6.54615093 0.76874078 9.921875 0.91015625 C38.6434021 3.21105207 66.10792979 20.64507557 84.859375 41.59765625 C106.96620922 69.68802583 114.21271249 103.47912799 110.53417969 138.71240234 C109.71232455 144.45239062 108.43474 150.02109716 106.859375 155.59765625 C106.67745605 156.26603516 106.49553711 156.93441406 106.30810547 157.62304688 C100.75624349 177.52838224 90.07584052 194.73965348 75.859375 209.59765625 C75.24835938 210.27183594 74.63734375 210.94601563 74.0078125 211.640625 C64.40915825 221.87238197 52.47046757 228.87302237 39.83740234 234.68701172 C38.4603997 235.32095641 37.09138051 235.97241221 35.72900391 236.63720703 C30.19841108 239.25747254 24.87538844 240.67739859 18.859375 241.72265625 C17.9530835 241.88805908 17.04679199 242.05346191 16.11303711 242.22387695 C8.91367356 243.50139686 1.69712212 244.45072795 -5.57421875 245.203125 C-7.88913952 245.45921153 -10.19736458 245.79124798 -12.48828125 246.2109375 C-15.140625 246.59765625 -15.140625 246.59765625 -17.140625 245.59765625 C-18.57575747 245.45860483 -20.01626661 245.37242192 -21.45703125 245.31640625 C-22.30330078 245.27902344 -23.14957031 245.24164063 -24.02148438 245.203125 C-25.81314502 245.1326591 -27.60481172 245.06234727 -29.39648438 244.9921875 C-30.24146484 244.95480469 -31.08644531 244.91742188 -31.95703125 244.87890625 C-32.73506104 244.84861328 -33.51309082 244.81832031 -34.31469727 244.78710938 C-36.140625 244.59765625 -36.140625 244.59765625 -37.140625 243.59765625 C-38.80919105 243.28347333 -40.47911405 242.97522821 -42.15429688 242.69848633 C-70.13910348 238.0483745 -95.50712055 224.15614339 -113.140625 201.59765625 C-133.38146086 173.23940184 -141.20080013 138.74204266 -135.828125 104.3046875 C-129.6802053 71.15482504 -114.10857602 40.42298115 -85.83642578 20.73828125 C-61.34199686 4.26290378 -29.38147713 -4.59350427 0 0 Z M-19.078125 13.66015625 C-20.71811106 14.94612776 -22.35875729 16.23125771 -24 17.515625 C-24.83724609 18.18513184 -25.67449219 18.85463867 -26.53710938 19.54443359 C-30.88135782 22.97045848 -35.35942139 26.21180188 -39.828125 29.47265625 C-41.43682024 30.65670704 -43.04495209 31.84152391 -44.65234375 33.02734375 C-45.81510417 33.88411458 -46.97786458 34.74088542 -48.140625 35.59765625 C-47.480625 35.92765625 -46.820625 36.25765625 -46.140625 36.59765625 C-43.45966614 35.3716351 -43.45966614 35.3716351 -40.41796875 33.546875 C-39.84456757 33.2170311 -39.27116638 32.88718719 -38.6803894 32.54734802 C-36.80830948 31.46778456 -34.94316971 30.37682151 -33.078125 29.28515625 C-31.80266758 28.54547442 -30.52686929 27.80638008 -29.25073242 27.06787109 C-26.7168154 25.59955554 -24.18582466 24.12638138 -21.65722656 22.64892578 C-18.62525162 20.87793725 -15.58408237 19.12348544 -12.5390625 17.375 C-11.01007749 16.49147211 -9.48140022 15.60741132 -7.953125 14.72265625 C-7.26017334 14.32522217 -6.56722168 13.92778809 -5.85327148 13.51831055 C-2.41393885 11.64936891 -2.41393885 11.64936891 -0.140625 8.59765625 C-8.57065949 6.65412295 -12.5587439 8.24479021 -19.078125 13.66015625 Z M-41.515625 9.78515625 C-43.19785156 10.11580078 -43.19785156 10.11580078 -44.9140625 10.453125 C-48.78327356 11.82561754 -50.38979515 13.58257345 -53.140625 16.59765625 C-55.1979101 18.42535737 -57.32551522 20.16515431 -59.453125 21.91015625 C-60.00291016 22.36455078 -60.55269531 22.81894531 -61.11914062 23.28710938 C-62.45774716 24.39291477 -63.79891731 25.49561564 -65.140625 26.59765625 C-64.480625 26.92765625 -63.820625 27.25765625 -63.140625 27.59765625 C-60.22959297 26.25671666 -60.22959297 26.25671666 -56.92578125 24.30078125 C-56.31423691 23.9513446 -55.70269257 23.60190796 -55.07261658 23.24188232 C-53.77674925 22.49908489 -52.48314885 21.75232095 -51.19165039 21.00195312 C-49.21983281 19.85735478 -47.24058349 18.72659168 -45.25976562 17.59765625 C-44.00213624 16.87451109 -42.74495963 16.15057781 -41.48828125 15.42578125 C-40.89757339 15.08814758 -40.30686554 14.75051392 -39.69825745 14.40264893 C-36.82922141 12.7278774 -34.33776616 11.10839689 -32.140625 8.59765625 C-35.43445401 8.59765625 -38.28958233 9.11706275 -41.515625 9.78515625 Z M7.921875 16.53515625 C6.71421324 17.45052639 5.50440486 18.36306836 4.29296875 19.2734375 C3.61089355 19.79115723 2.92881836 20.30887695 2.22607422 20.84228516 C-2.60168308 24.42301293 -7.57213535 27.80456456 -12.515625 31.22265625 C-14.5444579 32.63124102 -16.57311817 34.04007448 -18.6015625 35.44921875 C-20.11449704 36.49882231 -21.62748312 37.54835161 -23.140625 38.59765625 C-22.480625 38.92765625 -21.820625 39.25765625 -21.140625 39.59765625 C-18.41027545 38.33850441 -18.41027545 38.33850441 -15.3125 36.4765625 C-14.72704407 36.13898422 -14.14158813 35.80140594 -13.53839111 35.45359802 C-11.65134846 34.36326957 -9.77096287 33.26199954 -7.890625 32.16015625 C-6.66970239 31.45172967 -5.44835224 30.7440394 -4.2265625 30.03710938 C-1.77851161 28.6196042 0.66715289 27.19810204 3.11132812 25.77392578 C9.00583815 22.34440328 14.9336351 18.97282576 20.859375 15.59765625 C20.364375 14.60765625 20.364375 14.60765625 19.859375 13.59765625 C14.43481453 11.84195671 12.28869776 13.13751483 7.921875 16.53515625 Z M25.859375 23.84765625 C17.37120331 30.03264194 8.62634157 35.81786367 -0.140625 41.59765625 C1.54353846 42.42702662 1.54353846 42.42702662 3.859375 42.59765625 C6.92375057 41.3120198 6.92375057 41.3120198 10.1640625 39.3359375 C11.06646164 38.81534004 11.06646164 38.81534004 11.98709106 38.28422546 C13.90976731 37.1709668 15.82182012 36.04069618 17.734375 34.91015625 C19.0136915 34.16753099 20.2936336 33.42598232 21.57421875 32.68554688 C27.10932036 29.46928393 32.55959898 26.18897156 37.859375 22.59765625 C32.54723097 18.34794102 30.93220203 20.09058052 25.859375 23.84765625 Z M40.00390625 32.97265625 C39.01145149 33.6385376 39.01145149 33.6385376 37.99894714 34.31787109 C35.88550667 35.73803171 33.77868563 37.16768343 31.671875 38.59765625 C30.2406598 39.56182971 28.80902411 40.52537932 27.37695312 41.48828125 C23.86617252 43.85086 20.36129878 46.22197138 16.859375 48.59765625 C19.87971215 49.98504032 19.87971215 49.98504032 22.72265625 48.27416992 C23.86089844 47.6113501 24.99914062 46.94853027 26.171875 46.265625 C26.78200439 45.91381668 27.39213379 45.56200836 28.02075195 45.19953918 C29.97262904 44.07087231 31.91586443 42.92815758 33.859375 41.78515625 C35.16874266 41.02578126 36.4786329 40.26730658 37.7890625 39.50976562 C44.40775771 35.68953161 44.40775771 35.68953161 50.859375 31.59765625 C50.364375 30.11265625 50.364375 30.11265625 49.859375 28.59765625 C45.71911182 28.59765625 43.30750417 30.71703452 40.00390625 32.97265625 Z M58.859375 37.59765625 C58.529375 38.25765625 58.199375 38.91765625 57.859375 39.59765625 C59.179375 38.93765625 60.499375 38.27765625 61.859375 37.59765625 C60.869375 37.59765625 59.879375 37.59765625 58.859375 37.59765625 Z M55.859375 39.59765625 C55.529375 40.25765625 55.199375 40.91765625 54.859375 41.59765625 C55.849375 41.26765625 56.839375 40.93765625 57.859375 40.59765625 C57.199375 40.26765625 56.539375 39.93765625 55.859375 39.59765625 Z M63.9375 48.08203125 C63.15890625 48.60539062 62.3803125 49.12875 61.578125 49.66796875 C60.7634375 50.22226562 59.94875 50.7765625 59.109375 51.34765625 C58.31015625 51.88648438 57.5109375 52.4253125 56.6875 52.98046875 C55.12706194 54.03273784 53.56777952 55.08672308 52.00976562 56.14257812 C49.30204924 57.97477495 46.58233109 59.78820801 43.859375 61.59765625 C44.519375 61.92765625 45.179375 62.25765625 45.859375 62.59765625 C50.05994391 60.65477708 53.9959465 58.19057311 57.984375 55.84765625 C59.68787109 54.87699219 59.68787109 54.87699219 61.42578125 53.88671875 C63.03646484 52.94699219 63.03646484 52.94699219 64.6796875 51.98828125 C65.67242676 51.41110352 66.66516602 50.83392578 67.68798828 50.23925781 C68.4045459 49.6975293 69.12110352 49.15580078 69.859375 48.59765625 C69.859375 47.60765625 69.859375 46.61765625 69.859375 45.59765625 C67.19369932 45.59765625 66.13966273 46.59212581 63.9375 48.08203125 Z M-92.140625 54.59765625 C-95.63752565 56.13469539 -98.86318325 58.20507121 -102.140625 60.16015625 C-103.06875 60.68673828 -103.996875 61.21332031 -104.953125 61.75585938 C-110.37164805 64.89600813 -110.37164805 64.89600813 -113.765625 70 C-113.889375 70.85722656 -114.013125 71.71445313 -114.140625 72.59765625 C-105.87965928 67.29183274 -98.02702709 61.43712657 -90.140625 55.59765625 C-90.800625 55.26765625 -91.460625 54.93765625 -92.140625 54.59765625 Z M71.93359375 58.81640625 C70.90814453 59.5021875 69.88269531 60.18796875 68.82617188 60.89453125 C67.20291992 61.98507813 67.20291992 61.98507813 65.546875 63.09765625 C63.44661458 64.50390625 61.34635417 65.91015625 59.24609375 67.31640625 C58.20243652 68.01636719 57.1587793 68.71632813 56.08349609 69.4375 C51.01492867 72.8334325 45.93732431 76.21577046 40.859375 79.59765625 C41.189375 80.58765625 41.519375 81.57765625 41.859375 82.59765625 C45.41593884 81.25049713 48.68145566 79.67347046 51.9921875 77.8046875 C52.96414063 77.25619141 53.93609375 76.70769531 54.9375 76.14257812 C55.94296875 75.57087891 56.9484375 74.99917969 57.984375 74.41015625 C58.96664062 73.85779297 59.94890625 73.30542969 60.9609375 72.73632812 C67.73443679 68.89949728 74.33124645 64.83781439 80.859375 60.59765625 C79.89052128 58.91269327 78.88950777 57.24586869 77.859375 55.59765625 C75.75616066 55.59765625 73.58290021 57.71063595 71.93359375 58.81640625 Z M-94.140625 74.59765625 C-96.87282239 75.84066824 -96.87282239 75.84066824 -99.953125 77.67578125 C-100.52264893 78.00302185 -101.09217285 78.33026245 -101.67895508 78.66741943 C-102.88492529 79.36305392 -104.08856532 80.06274117 -105.29003906 80.76611328 C-107.12716157 81.83978778 -108.97291189 82.89725615 -110.8203125 83.953125 C-111.99013744 84.63055445 -113.15942657 85.30891019 -114.328125 85.98828125 C-115.39417969 86.60735352 -116.46023437 87.22642578 -117.55859375 87.86425781 C-120.35203676 89.5013318 -120.35203676 89.5013318 -122.140625 92.59765625 C-121.810625 93.58765625 -121.480625 94.57765625 -121.140625 95.59765625 C-106.58584248 85.67681972 -106.58584248 85.67681972 -92.140625 75.59765625 C-92.800625 75.26765625 -93.460625 74.93765625 -94.140625 74.59765625 Z M89.859375 79.59765625 C89.529375 80.25765625 89.199375 80.91765625 88.859375 81.59765625 C89.849375 81.26765625 90.839375 80.93765625 91.859375 80.59765625 C91.199375 80.26765625 90.539375 79.93765625 89.859375 79.59765625 Z M86.859375 81.59765625 C85.869375 82.58765625 84.879375 83.57765625 83.859375 84.59765625 C85.509375 83.93765625 87.159375 83.27765625 88.859375 82.59765625 C88.199375 82.26765625 87.539375 81.93765625 86.859375 81.59765625 Z M81.859375 84.59765625 C81.529375 85.25765625 81.199375 85.91765625 80.859375 86.59765625 C81.849375 86.26765625 82.839375 85.93765625 83.859375 85.59765625 C83.199375 85.26765625 82.539375 84.93765625 81.859375 84.59765625 Z M23.734375 91.09765625 C22.82429687 91.74734375 21.91421875 92.39703125 20.9765625 93.06640625 C20.27789062 93.57171875 19.57921875 94.07703125 18.859375 94.59765625 C19.849375 95.09265625 19.849375 95.09265625 20.859375 95.59765625 C23.34797594 94.45046744 23.34797594 94.45046744 25.984375 92.78515625 C26.89445313 92.24246094 27.80453125 91.69976562 28.7421875 91.140625 C29.79019531 90.37685547 29.79019531 90.37685547 30.859375 89.59765625 C30.859375 88.93765625 30.859375 88.27765625 30.859375 87.59765625 C27.80160225 87.59765625 26.18418846 89.33881582 23.734375 91.09765625 Z M-90.140625 89.59765625 C-90.470625 90.25765625 -90.800625 90.91765625 -91.140625 91.59765625 C-90.150625 91.26765625 -89.160625 90.93765625 -88.140625 90.59765625 C-88.800625 90.26765625 -89.460625 89.93765625 -90.140625 89.59765625 Z M-99.3203125 94.9921875 C-99.92948517 95.3402092 -100.53865784 95.6882309 -101.16629028 96.04679871 C-102.45692906 96.78540808 -103.74635776 97.52613532 -105.03466797 98.26879883 C-106.99798974 99.39999543 -108.96542155 100.52375291 -110.93359375 101.64648438 C-120.14273834 105.92062619 -120.14273834 105.92062619 -125.890625 113.28515625 C-125.973125 114.04828125 -126.055625 114.81140625 -126.140625 115.59765625 C-121.13966606 113.97307859 -117.28375377 111.02728072 -113.078125 107.97265625 C-106.89631606 103.5339892 -100.66480515 99.24230488 -94.265625 95.12109375 C-92.03262691 93.77028685 -92.03262691 93.77028685 -91.140625 91.59765625 C-94.35344186 91.59765625 -96.56004267 93.41139814 -99.3203125 94.9921875 Z M88.5715332 94.25976562 C87.71086746 94.84036743 86.85020172 95.42096924 85.9634552 96.01916504 C85.03836655 96.65350464 84.11327789 97.28784424 83.16015625 97.94140625 C82.20997116 98.58509155 81.25978607 99.22877686 80.2808075 99.89196777 C77.24004447 101.95406121 74.20593701 104.02571916 71.171875 106.09765625 C69.11436268 107.49542541 67.05642523 108.892569 64.99804688 110.2890625 C59.94686319 113.7180105 54.90111402 117.15483862 49.859375 120.59765625 C50.519375 120.92765625 51.179375 121.25765625 51.859375 121.59765625 C54.31232438 120.48568359 54.31232438 120.48568359 57.07421875 118.80078125 C58.14494629 118.17631104 59.21567383 117.55184082 60.31884766 116.90844727 C61.47827027 116.22165225 62.63761113 115.53471919 63.796875 114.84765625 C64.97138167 114.15928807 66.14635186 113.47171017 67.32177734 112.78491211 C69.69673054 111.39601372 72.06927375 110.00313362 74.43994141 108.60693359 C79.27380865 105.76652752 84.12865368 102.96297152 88.984375 100.16015625 C90.52882917 99.26594158 92.07312021 98.37144504 93.6171875 97.4765625 C94.68710937 96.85652344 95.75703125 96.23648438 96.859375 95.59765625 C96.364375 93.61765625 96.364375 93.61765625 95.859375 91.59765625 C92.3387703 91.59765625 91.43413315 92.3121903 88.5715332 94.25976562 Z M16.859375 95.59765625 C16.529375 96.25765625 16.199375 96.91765625 15.859375 97.59765625 C16.849375 97.26765625 17.839375 96.93765625 18.859375 96.59765625 C18.199375 96.26765625 17.539375 95.93765625 16.859375 95.59765625 Z M89.359375 111.84765625 C83.18142446 116.27474651 76.94878318 120.59241878 70.609375 124.78515625 C63.29162431 129.62883289 56.04986864 134.56685151 48.859375 139.59765625 C49.519375 139.92765625 50.179375 140.25765625 50.859375 140.59765625 C52.93540977 139.73052809 52.93540977 139.73052809 55.2421875 138.34375 C56.15145996 137.82522461 57.06073242 137.30669922 57.99755859 136.77246094 C59.47603271 135.91249512 59.47603271 135.91249512 60.984375 135.03515625 C61.9945166 134.45540039 63.0046582 133.87564453 64.04541016 133.27832031 C67.32200174 131.39373817 70.59106744 129.49656385 73.859375 127.59765625 C76.13540829 126.28123551 78.41144993 124.96482921 80.6875 123.6484375 C84.90141536 121.20431701 89.11433946 118.75854776 93.3203125 116.30078125 C94.17415527 115.80223633 95.02799805 115.30369141 95.90771484 114.79003906 C97.79097368 113.74430715 97.79097368 113.74430715 98.859375 112.59765625 C98.90018283 110.59807261 98.90191856 108.59720371 98.859375 106.59765625 C95.18573966 106.59765625 92.2581286 109.74325402 89.359375 111.84765625 Z M-96.140625 110.59765625 C-98.8401635 111.84122661 -98.8401635 111.84122661 -101.8828125 113.67578125 C-102.44759308 114.00302185 -103.01237366 114.33026245 -103.5942688 114.66741943 C-104.79176139 115.36322818 -105.98700955 116.06291157 -107.18017578 116.76611328 C-108.99696828 117.83666273 -110.81995493 118.8959077 -112.64453125 119.953125 C-119.59542756 123.96623296 -119.59542756 123.96623296 -126.140625 128.59765625 C-125.810625 129.91765625 -125.480625 131.23765625 -125.140625 132.59765625 C-114.910625 125.66765625 -104.680625 118.73765625 -94.140625 111.59765625 C-94.800625 111.26765625 -95.460625 110.93765625 -96.140625 110.59765625 Z M97.859375 124.59765625 C97.529375 125.25765625 97.199375 125.91765625 96.859375 126.59765625 C97.849375 126.26765625 98.839375 125.93765625 99.859375 125.59765625 C99.199375 125.26765625 98.539375 124.93765625 97.859375 124.59765625 Z M94.859375 126.59765625 C94.529375 127.25765625 94.199375 127.91765625 93.859375 128.59765625 C94.849375 128.26765625 95.839375 127.93765625 96.859375 127.59765625 C96.199375 127.26765625 95.539375 126.93765625 94.859375 126.59765625 Z M-56.140625 131.59765625 C-56.470625 132.25765625 -56.800625 132.91765625 -57.140625 133.59765625 C-56.150625 133.26765625 -55.160625 132.93765625 -54.140625 132.59765625 C-54.800625 132.26765625 -55.460625 131.93765625 -56.140625 131.59765625 Z M-59.140625 133.59765625 C-61.67358751 134.74128434 -61.67358751 134.74128434 -64.546875 136.47265625 C-65.67158203 137.12145752 -66.79628906 137.77025879 -67.95507812 138.4387207 C-69.18370645 139.15817345 -70.4122194 139.87782327 -71.640625 140.59765625 C-72.89476005 141.32519124 -74.14932238 142.05199015 -75.40429688 142.77807617 C-78.00875024 144.28622164 -80.61064995 145.79864908 -83.2109375 147.31396484 C-87.0110317 149.52602487 -90.82401107 151.71503694 -94.640625 153.8984375 C-95.83013429 154.57998011 -97.01958846 155.26161893 -98.20898438 155.94335938 C-100.45975176 157.23335525 -102.71103638 158.52244918 -104.96289062 159.81054688 C-105.98060547 160.39642578 -106.99832031 160.98230469 -108.046875 161.5859375 C-108.93697266 162.09680908 -109.82707031 162.60768066 -110.74414062 163.1340332 C-112.99025996 164.50582267 -115.06676269 165.97993526 -117.140625 167.59765625 C-116.480625 169.24765625 -115.820625 170.89765625 -115.140625 172.59765625 C-111.13759271 171.16702399 -107.90748625 169.24463851 -104.40625 166.84375 C-103.85892212 166.47047577 -103.31159424 166.09720154 -102.74768066 165.71261597 C-100.95891939 164.49122603 -99.17480322 163.26322891 -97.390625 162.03515625 C-96.15039175 161.18661547 -94.90982771 160.33855799 -93.66894531 159.4909668 C-91.10851507 157.74129 -88.54975044 155.9892167 -85.9921875 154.23535156 C-80.52333388 150.48708661 -75.03752283 146.76380047 -69.5526123 143.03909302 C-66.90919508 141.24350114 -64.26712123 139.44593558 -61.625 137.6484375 C-60.75584961 137.05716064 -59.88669922 136.46588379 -58.99121094 135.85668945 C-58.38051758 135.4412085 -57.76982422 135.02572754 -57.140625 134.59765625 C-57.800625 134.26765625 -58.460625 133.93765625 -59.140625 133.59765625 Z M93.08984375 142.16796875 C92.29223633 142.7285498 91.49462891 143.28913086 90.67285156 143.86669922 C89.8062793 144.47916504 88.93970703 145.09163086 88.046875 145.72265625 C86.23312221 146.99876798 84.41931856 148.27480743 82.60546875 149.55078125 C81.66429199 150.21400391 80.72311523 150.87722656 79.75341797 151.56054688 C75.04558985 154.87437494 70.32710116 158.17294281 65.609375 161.47265625 C63.91661541 162.65747886 62.22390233 163.84236791 60.53125 165.02734375 C59.30729167 165.88411458 58.08333333 166.74088542 56.859375 167.59765625 C57.519375 167.92765625 58.179375 168.25765625 58.859375 168.59765625 C61.6554575 167.30567822 61.6554575 167.30567822 64.828125 165.40625 C65.42306763 165.06392838 66.01801025 164.72160675 66.63098145 164.36891174 C68.5448804 163.2651323 70.45204969 162.15024868 72.359375 161.03515625 C73.61416901 160.30982963 74.86937316 159.58521206 76.125 158.86132812 C78.57133954 157.44893063 81.01100046 156.02594155 83.44580078 154.59375 C85.60443296 153.3314859 87.77356943 152.08687191 89.95654297 150.8671875 C90.86033691 150.35414063 91.76413086 149.84109375 92.6953125 149.3125 C93.4795459 148.87671631 94.2637793 148.44093262 95.07177734 147.99194336 C97.21352132 146.32142986 97.58638282 145.37626743 97.984375 142.72265625 C97.943125 141.69140625 97.901875 140.66015625 97.859375 139.59765625 C96.00614544 139.59765625 94.55210945 141.13678332 93.08984375 142.16796875 Z M46.859375 140.59765625 C46.529375 141.25765625 46.199375 141.91765625 45.859375 142.59765625 C46.849375 142.26765625 47.839375 141.93765625 48.859375 141.59765625 C48.199375 141.26765625 47.539375 140.93765625 46.859375 140.59765625 Z M-122.140625 141.59765625 C-122.470625 142.25765625 -122.800625 142.91765625 -123.140625 143.59765625 C-122.150625 143.26765625 -121.160625 142.93765625 -120.140625 142.59765625 C-120.800625 142.26765625 -121.460625 141.93765625 -122.140625 141.59765625 Z M-99.140625 141.59765625 C-99.470625 142.25765625 -99.800625 142.91765625 -100.140625 143.59765625 C-99.150625 143.26765625 -98.160625 142.93765625 -97.140625 142.59765625 C-97.800625 142.26765625 -98.460625 141.93765625 -99.140625 141.59765625 Z M-102.140625 143.59765625 C-105.5009832 145.04434997 -108.60901373 147.00401228 -111.765625 148.84765625 C-112.6628125 149.35167969 -113.56 149.85570312 -114.484375 150.375 C-115.75667969 151.11169922 -115.75667969 151.11169922 -117.0546875 151.86328125 C-118.2295874 152.54052246 -118.2295874 152.54052246 -119.42822266 153.23144531 C-119.99331543 153.68229492 -120.5584082 154.13314453 -121.140625 154.59765625 C-121.140625 155.58765625 -121.140625 156.57765625 -121.140625 157.59765625 C-113.50761615 154.15531892 -106.92974794 149.4411159 -100.140625 144.59765625 C-100.800625 144.26765625 -101.460625 143.93765625 -102.140625 143.59765625 Z M-42.140625 168.59765625 C-42.470625 169.25765625 -42.800625 169.91765625 -43.140625 170.59765625 C-42.150625 170.26765625 -41.160625 169.93765625 -40.140625 169.59765625 C-40.800625 169.26765625 -41.460625 168.93765625 -42.140625 168.59765625 Z M54.859375 168.59765625 C54.529375 169.25765625 54.199375 169.91765625 53.859375 170.59765625 C54.849375 170.26765625 55.839375 169.93765625 56.859375 169.59765625 C56.199375 169.26765625 55.539375 168.93765625 54.859375 168.59765625 Z M-50.6875 173.640625 C-51.24727539 173.96094193 -51.80705078 174.28125885 -52.38378906 174.61128235 C-54.22194338 175.66488134 -56.05633642 176.72484363 -57.890625 177.78515625 C-59.15254201 178.51063808 -60.41458719 179.235897 -61.67675781 179.9609375 C-72.88742959 186.41122885 -84.03235368 192.97263641 -95.140625 199.59765625 C-93.820625 200.91765625 -92.500625 202.23765625 -91.140625 203.59765625 C-84.94317288 199.54757399 -78.75066555 195.49001576 -72.56152344 191.42724609 C-70.45588219 190.04629043 -68.34911886 188.6670441 -66.24121094 187.28955078 C-63.20991478 185.30820876 -60.18271951 183.32073569 -57.15625 181.33203125 C-55.74354828 180.41148956 -55.74354828 180.41148956 -54.30230713 179.47235107 C-53.42169617 178.89205139 -52.54108521 178.31175171 -51.63378906 177.71386719 C-50.86101624 177.20756775 -50.08824341 176.70126831 -49.29205322 176.17962646 C-47.00741426 174.49970484 -45.09387578 172.64868398 -43.140625 170.59765625 C-46.17525036 170.59765625 -48.0688299 172.13590068 -50.6875 173.640625 Z M-24.140625 175.59765625 C-24.470625 176.25765625 -24.800625 176.91765625 -25.140625 177.59765625 C-24.150625 177.26765625 -23.160625 176.93765625 -22.140625 176.59765625 C-22.800625 176.26765625 -23.460625 175.93765625 -24.140625 175.59765625 Z M-27.140625 177.59765625 C-29.67358751 178.74128434 -29.67358751 178.74128434 -32.546875 180.47265625 C-33.67174316 181.12153809 -34.79661133 181.77041992 -35.95556641 182.43896484 C-37.18403959 183.15832322 -38.41238963 183.87789191 -39.640625 184.59765625 C-40.89329915 185.32445191 -42.14639651 186.05051859 -43.39990234 186.77587891 C-46.00285112 188.28335948 -48.60326077 189.7951002 -51.20214844 191.30957031 C-55.02785423 193.53617032 -58.86755631 195.7376836 -62.7109375 197.93359375 C-63.90957258 198.61967398 -65.10814159 199.30586965 -66.30664062 199.9921875 C-68.58319666 201.29564759 -70.86052064 202.59776748 -73.13867188 203.8984375 C-74.16283203 204.48753906 -75.18699219 205.07664063 -76.2421875 205.68359375 C-77.14275879 206.19970215 -78.04333008 206.71581055 -78.97119141 207.24755859 C-81.23971839 208.54559358 -81.23971839 208.54559358 -83.140625 210.59765625 C-81.9761049 212.2638705 -81.9761049 212.2638705 -80.140625 213.59765625 C-75.83552295 213.23839555 -73.10744142 211.49273925 -69.60546875 209.0625 C-68.55214355 208.3391748 -67.49881836 207.61584961 -66.41357422 206.87060547 C-65.33350098 206.12053223 -64.25342773 205.37045898 -63.140625 204.59765625 C-61.08074091 203.20118506 -59.01955409 201.80663343 -56.95703125 200.4140625 C-54.87190925 198.99680936 -52.78728099 197.57882958 -50.703125 196.16015625 C-49.61652588 195.42095947 -48.52992676 194.6817627 -47.41040039 193.92016602 C-39.961868 188.84874178 -32.53041556 183.75434907 -25.140625 178.59765625 C-25.800625 178.26765625 -26.460625 177.93765625 -27.140625 177.59765625 Z M-93.140625 184.59765625 C-93.470625 185.25765625 -93.800625 185.91765625 -94.140625 186.59765625 C-93.150625 186.26765625 -92.160625 185.93765625 -91.140625 185.59765625 C-91.800625 185.26765625 -92.460625 184.93765625 -93.140625 184.59765625 Z M-96.140625 186.59765625 C-97.93603011 187.3626718 -97.93603011 187.3626718 -99.765625 188.53515625 C-100.879375 189.21578125 -101.993125 189.89640625 -103.140625 190.59765625 C-102.150625 190.92765625 -101.160625 191.25765625 -100.140625 191.59765625 C-96.95774146 189.72587509 -96.95774146 189.72587509 -94.140625 187.59765625 C-94.800625 187.26765625 -95.460625 186.93765625 -96.140625 186.59765625 Z M-1.140625 194.59765625 C-1.470625 195.25765625 -1.800625 195.91765625 -2.140625 196.59765625 C-1.150625 196.26765625 -0.160625 195.93765625 0.859375 195.59765625 C0.199375 195.26765625 -0.460625 194.93765625 -1.140625 194.59765625 Z M-6.765625 199.09765625 C-7.549375 199.92265625 -8.333125 200.74765625 -9.140625 201.59765625 C-6.25624721 200.30465931 -4.26843079 198.93824262 -2.140625 196.59765625 C-4.50341236 196.36777119 -4.50341236 196.36777119 -6.765625 199.09765625 Z M-21.54296875 206.28125 C-22.59291016 206.87583008 -23.64285156 207.47041016 -24.72460938 208.08300781 C-25.83126953 208.7272168 -26.93792969 209.37142578 -28.078125 210.03515625 C-29.20154297 210.67807617 -30.32496094 211.32099609 -31.48242188 211.98339844 C-34.71132377 213.83903546 -37.92846118 215.71322166 -41.140625 217.59765625 C-41.94129395 218.0663916 -42.74196289 218.53512695 -43.56689453 219.01806641 C-50.28638698 222.38887978 -50.28638698 222.38887978 -55.140625 227.59765625 C-52.53471773 228.79347046 -50.95100121 229.46358087 -48.140625 229.59765625 C-44.8239568 228.22904516 -42.11711879 226.12636581 -39.265625 223.97265625 C-38.44860107 223.38395752 -37.63157715 222.79525879 -36.78979492 222.1887207 C-35.08589351 220.95955605 -33.38860148 219.72118174 -31.69775391 218.47412109 C-28.41202559 216.06299757 -25.07801788 213.72475022 -21.73974609 211.38720703 C-18.52984993 209.13829195 -15.33541622 206.86796243 -12.140625 204.59765625 C-16.08168649 203.01463331 -17.98131765 204.23998271 -21.54296875 206.28125 Z M-56.140625 212.59765625 C-56.470625 213.25765625 -56.800625 213.91765625 -57.140625 214.59765625 C-56.150625 214.26765625 -55.160625 213.93765625 -54.140625 213.59765625 C-54.800625 213.26765625 -55.460625 212.93765625 -56.140625 212.59765625 Z M-59.140625 214.59765625 C-61.39386659 215.59182633 -61.39386659 215.59182633 -63.765625 217.03515625 C-64.58289063 217.50824219 -65.40015625 217.98132813 -66.2421875 218.46875 C-67.18191406 219.02755859 -67.18191406 219.02755859 -68.140625 219.59765625 C-67.480625 220.25765625 -66.820625 220.91765625 -66.140625 221.59765625 C-63.170625 219.61765625 -60.200625 217.63765625 -57.140625 215.59765625 C-57.800625 215.26765625 -58.460625 214.93765625 -59.140625 214.59765625 Z M35.859375 218.59765625 C33.3386454 219.74329711 33.3386454 219.74329711 30.51953125 221.45703125 C29.45669922 222.07835937 28.39386719 222.6996875 27.29882812 223.33984375 C25.62723633 224.33371094 25.62723633 224.33371094 23.921875 225.34765625 C22.81134766 225.99476563 21.70082031 226.641875 20.55664062 227.30859375 C14.25059222 230.85824099 14.25059222 230.85824099 8.859375 235.59765625 C10.4639306 235.45616636 12.06801267 235.30929939 13.671875 235.16015625 C15.01185547 235.03833984 15.01185547 235.03833984 16.37890625 234.9140625 C21.48145154 234.26318664 23.34598413 232.19311173 26.859375 228.59765625 C28.77704524 226.9698363 30.71459543 225.36512892 32.671875 223.78515625 C33.64769531 222.99496094 34.62351562 222.20476562 35.62890625 221.390625 C36.36496094 220.79894531 37.10101563 220.20726562 37.859375 219.59765625 C37.199375 219.26765625 36.539375 218.93765625 35.859375 218.59765625 Z M-13.765625 233.59765625 C-14.879375 234.25765625 -15.993125 234.91765625 -17.140625 235.59765625 C-15.41585589 236.55267783 -15.41585589 236.55267783 -13.140625 236.59765625 C-10.36940225 234.24339126 -10.36940225 234.24339126 -8.140625 231.59765625 C-10.60363923 231.59765625 -11.66125778 232.35062382 -13.765625 233.59765625 Z " fill="#85A8AE" transform="translate(269.140625,5.40234375)"/>
<path d="M0 0 C2.3125 2.0625 2.3125 2.0625 4 4 C2.86695008 7.39914975 1.87481525 8.05254451 -1 10 C3.3492823 6.97966507 3.3492823 6.97966507 6 7.0625 C8.74700448 8.35015835 10.79732927 9.91969987 13 12 C13 12.99 13 13.98 13 15 C13.5887793 15.1043335 14.17755859 15.20866699 14.78417969 15.31616211 C17.34067685 16.10513837 18.52660205 17.10407417 20.453125 18.94140625 C21.071875 19.52470703 21.690625 20.10800781 22.328125 20.70898438 C22.96234375 21.32064453 23.5965625 21.93230469 24.25 22.5625 C25.22453125 23.48579102 25.22453125 23.48579102 26.21875 24.42773438 C27.81880287 25.94543158 29.41213644 27.46957115 31 29 C27.82222895 32.22292588 24.58412265 35.32144423 21.1875 38.3125 C20.00220703 39.35857422 20.00220703 39.35857422 18.79296875 40.42578125 C17.90544922 41.20501953 17.90544922 41.20501953 17 42 C18.72990025 41.06385433 20.45888696 40.12602042 22.1875 39.1875 C23.15042969 38.66542969 24.11335937 38.14335937 25.10546875 37.60546875 C27.0131828 36.54734395 28.89296061 35.43696349 30.73828125 34.2734375 C33 33 33 33 35 33.4375 C37.81489651 35.6366379 39.79815265 38.18652838 42 41 C40.515 42.485 40.515 42.485 39 44 C40.32 43.67 41.64 43.34 43 43 C43.53859438 46.07768217 43.52055113 48.19643078 41.79296875 50.86328125 C38.70509036 54.47183234 35.30470324 57.64793179 31.7265625 60.76171875 C27.14236499 64.86210814 22.81473899 69.16537646 18.515625 73.5625 C17.84719574 74.24354294 17.17876648 74.92458588 16.49008179 75.62626648 C13.71204008 78.45810793 10.93529267 81.29079801 8.17871094 84.14355469 C-13.29497239 106.32929763 -13.29497239 106.32929763 -23.28027344 107.328125 C-26 107 -26 107 -27.875 105.25 C-29 103 -29 103 -29 99 C-26.90668576 97.1071722 -24.90976098 95.49939758 -22.625 93.875 C-18.13148477 90.65563927 -18.13148477 90.65563927 -14 87 C-14.99902344 87.5775 -15.99804688 88.155 -17.02734375 88.75 C-18.33066437 89.50011259 -19.63405332 90.25010648 -20.9375 91 C-21.59685547 91.3815625 -22.25621094 91.763125 -22.93554688 92.15625 C-27.88671875 95 -27.88671875 95 -29 95 C-29 90 -29 85 -29 80 C-29.51603346 77.80092298 -29.51603346 77.80092298 -31 76 C-34.05908413 75.18415432 -34.05908413 75.18415432 -37 75 C-32.04989131 68.7120241 -26.2821957 63.92962331 -20 59 C-21.42198897 59.81256513 -22.84388352 60.62529582 -24.26538086 61.4387207 C-25.52245458 62.15612906 -26.78112879 62.8707391 -28.04125977 63.58276367 C-31.24288805 65.39679491 -34.40995751 67.23877939 -37.51953125 69.20703125 C-44.54364007 73.58255763 -50.90265905 75.9559991 -59.1484375 77.3046875 C-65.96622665 78.53548514 -72.46724307 80.72541722 -79 83 C-79.63437988 83.22026855 -80.26875977 83.44053711 -80.92236328 83.66748047 C-112.90040153 95.01931307 -135.58841708 118.38262563 -154 146 C-154.67883858 147.99590146 -155.34326346 149.9967173 -156 152 C-156.79496968 153.96514018 -157.62835344 155.91164386 -158.4621582 157.8605957 C-163.30100853 169.20128718 -166.89799642 180.38470736 -168.5078125 192.671875 C-169 195 -169 195 -171 197 C-170.34 197.33 -169.68 197.66 -169 198 C-168.36980306 208.97592998 -168.36980306 208.97592998 -171 213.25 C-171.66 213.8275 -172.32 214.405 -173 215 C-171.68 214.67 -170.36 214.34 -169 214 C-165.53286564 245.0184699 -165.53286564 245.0184699 -172 256 C-175.08038817 259.31734111 -177.52038057 260.48804349 -182 261 C-182 260.34 -182 259.68 -182 259 C-182.95003906 259.65484375 -183.90007812 260.3096875 -184.87890625 260.984375 C-189.50900132 263.63014361 -193.72548297 263.45610257 -198.9375 263.25 C-199.81212891 263.23195313 -200.68675781 263.21390625 -201.58789062 263.1953125 C-203.72574108 263.14858353 -205.86302045 263.07685441 -208 263 C-207.3503125 262.25943359 -207.3503125 262.25943359 -206.6875 261.50390625 C-206.130625 260.86324219 -205.57375 260.22257812 -205 259.5625 C-204.443125 258.92441406 -203.88625 258.28632813 -203.3125 257.62890625 C-201.89542935 256.21886821 -201.89542935 256.21886821 -202 255 C-202.73605469 255.433125 -203.47210938 255.86625 -204.23046875 256.3125 C-205.20628906 256.869375 -206.18210938 257.42625 -207.1875 258 C-208.63189453 258.8353125 -208.63189453 258.8353125 -210.10546875 259.6875 C-213.09531192 261.04321836 -214.7712733 261.4542107 -218 261 C-222.88179256 257.02644792 -224.66823287 253.65413706 -225.4375 247.5 C-224.88771505 243.10172038 -223.3522546 241.76561005 -220 239 C-220.99 239.33 -221.98 239.66 -223 240 C-223.66 240 -224.32 240 -225 240 C-225.10832169 237.91781638 -225.18573541 235.83400871 -225.25 233.75 C-225.29640625 232.58984375 -225.3428125 231.4296875 -225.390625 230.234375 C-224.93035506 226.42333987 -223.94851556 225.34488245 -221 223 C-223.475 223.99 -223.475 223.99 -226 225 C-226.05386629 222.87527424 -226.09273071 220.75016348 -226.125 218.625 C-226.14820313 217.44164062 -226.17140625 216.25828125 -226.1953125 215.0390625 C-226 212 -226 212 -224 210 C-224.66 210 -225.32 210 -226 210 C-227.06287779 183.19186024 -221.12206393 149.45594044 -206 127 C-205.64369142 125.33809354 -205.31023905 123.67111957 -205 122 C-203.92126645 119.94256584 -202.76950263 117.92240454 -201.5625 115.9375 C-199.16481441 112.01318261 -199.16481441 112.01318261 -196.9921875 107.96484375 C-179.6213914 73.56519636 -142.25210893 40.66136259 -106 28 C-105.34 28.33 -104.68 28.66 -104 29 C-104.66 29.66 -105.32 30.32 -106 31 C-105.00484375 30.40832031 -104.0096875 29.81664062 -102.984375 29.20703125 C-95.01349548 24.63802649 -87.3251168 21.12996147 -78.375 18.9375 C-77.54709961 18.73423096 -76.71919922 18.53096191 -75.86621094 18.3215332 C-71.16030882 17.25683001 -66.85122324 16.81059456 -62 17 C-59.06437213 17.21314096 -59.06437213 17.21314096 -56.89453125 16.0078125 C-52.8021246 14.58292598 -48.98460823 14.7868194 -44.6875 14.875 C-43.85154297 14.88402344 -43.01558594 14.89304688 -42.15429688 14.90234375 C-40.10274031 14.92579011 -38.05133223 14.96165734 -36 15 C-37.175625 15.928125 -37.175625 15.928125 -38.375 16.875 C-40.96837647 18.89858661 -40.96837647 18.89858661 -43 21 C-39.51669878 18.99233917 -36.03363946 16.98425934 -32.55078125 14.97583008 C-30.79959985 13.96609926 -29.04824002 12.95667793 -27.296875 11.94726562 C-25.5953125 10.9659668 -25.5953125 10.9659668 -23.859375 9.96484375 C-22.72048828 9.31241699 -21.58160156 8.65999023 -20.40820312 7.98779297 C-18.13218706 6.66033431 -15.87527435 5.2995789 -13.63867188 3.90673828 C-12.58744141 3.25817871 -11.53621094 2.60961914 -10.453125 1.94140625 C-9.52145508 1.35174072 -8.58978516 0.7620752 -7.62988281 0.15454102 C-4.51963696 -1.21088348 -3.16944032 -1.11817156 0 0 Z M-5 11 C-5.33 11.66 -5.66 12.32 -6 13 C-5.01 12.67 -4.02 12.34 -3 12 C-3.66 11.67 -4.32 11.34 -5 11 Z M-65 19 C-65.33 19.66 -65.66 20.32 -66 21 C-65.01 20.67 -64.02 20.34 -63 20 C-63.66 19.67 -64.32 19.34 -65 19 Z M-110 32 C-110.33 32.66 -110.66 33.32 -111 34 C-110.01 33.67 -109.02 33.34 -108 33 C-108.66 32.67 -109.32 32.34 -110 32 Z M-169 131 C-169.33 131.66 -169.66 132.32 -170 133 C-169.01 132.67 -168.02 132.34 -167 132 C-167.66 131.67 -168.32 131.34 -169 131 Z M-172 133 C-174.71382582 134.24243665 -174.71382582 134.24243665 -177.79296875 136.0859375 C-178.66120522 136.58473671 -178.66120522 136.58473671 -179.54698181 137.09361267 C-181.43192433 138.17938554 -183.30982017 139.27672264 -185.1875 140.375 C-186.46895447 141.11792139 -187.75069284 141.86035333 -189.03271484 142.60229492 C-191.55248104 144.06300013 -194.06898006 145.5290948 -196.58251953 147.00048828 C-199.42426926 148.66314939 -202.27133717 150.31597612 -205.12109375 151.96484375 C-211.84366394 155.58610852 -211.84366394 155.58610852 -217 161 C-215.23756458 161.7683953 -215.23756458 161.7683953 -213 162 C-210.64528282 160.96319135 -210.64528282 160.96319135 -208.28125 159.2734375 C-206.89595093 158.35220093 -206.89595093 158.35220093 -205.48266602 157.41235352 C-204.49838623 156.74002686 -203.51410645 156.0677002 -202.5 155.375 C-200.436441 153.99573 -198.37263379 152.61683129 -196.30859375 151.23828125 C-194.74020752 150.18181396 -194.74020752 150.18181396 -193.14013672 149.10400391 C-188.31492036 145.87093638 -183.43915667 142.71719852 -178.5625 139.5625 C-176.89691778 138.48080379 -175.23153139 137.39880594 -173.56640625 136.31640625 C-172.37762191 135.54424352 -171.18882736 134.77209651 -170 134 C-170.66 133.67 -171.32 133.34 -172 133 Z M-209 171 C-211.38747864 172.07781191 -211.38747864 172.07781191 -213.9375 173.6875 C-214.81277344 174.20699219 -215.68804687 174.72648438 -216.58984375 175.26171875 C-218.96698238 176.97618665 -220.39552055 178.56945192 -222 181 C-221.67 181.66 -221.34 182.32 -221 183 C-216.38 179.37 -211.76 175.74 -207 172 C-207.66 171.67 -208.32 171.34 -209 171 Z " fill="#D7415D" transform="translate(453,237)"/>
<path d="M0 0 C2.58809869 2.85354471 3.8175747 4.87938745 4.4375 8.6875 C3.92572398 11.3926018 3.12943217 12.31419953 1 14 C1.99 13.67 2.98 13.34 4 13 C4.10832169 15.08218362 4.18573541 17.16599129 4.25 19.25 C4.29640625 20.41015625 4.3428125 21.5703125 4.390625 22.765625 C3.93035506 26.57666013 2.94851556 27.65511755 0 30 C1.32 29.67 2.64 29.34 4 29 C4 29.99 4 30.98 4 32 C5.11117187 31.98839844 6.22234375 31.97679687 7.3671875 31.96484375 C15.32301396 31.90761402 23.09199699 31.99580914 31 33 C31 33.66 31 34.32 31 35 C31.90878906 34.77441406 32.81757812 34.54882812 33.75390625 34.31640625 C39.36684313 33.51455812 44.57973294 35.41763684 49.9375 36.9375 C51.00291016 37.22818359 52.06832031 37.51886719 53.16601562 37.81835938 C55.78089389 38.53363998 58.39171735 39.26109801 61 40 C61 40.66 61 41.32 61 42 C59.65478516 43.20507812 59.65478516 43.20507812 57.7890625 44.53125 C57.12132812 45.01207031 56.45359375 45.49289062 55.765625 45.98828125 C55.05921875 46.48714844 54.3528125 46.98601562 53.625 47.5 C52.24113467 48.48811049 50.85827767 49.47763508 49.4765625 50.46875 C48.85861816 50.90638672 48.24067383 51.34402344 47.60400391 51.79492188 C45.85954947 53.04671577 45.85954947 53.04671577 44 55 C44.59425781 54.63124756 45.18851562 54.26249512 45.80078125 53.88256836 C48.52084171 52.21187804 51.25968505 50.57473757 54 48.9375 C54.93457031 48.35677734 55.86914062 47.77605469 56.83203125 47.17773438 C64.73347842 42.50869741 64.73347842 42.50869741 69.5 43.0625 C72.46792035 43.85747866 75.21950071 44.69664096 78 46 C76.58901723 49.37402968 75.02751724 51.01708631 72.0703125 53.13671875 C70.88465698 53.99692627 70.88465698 53.99692627 69.67504883 54.87451172 C68.41277466 55.77194092 68.41277466 55.77194092 67.125 56.6875 C65.40204764 57.9331843 63.67939157 59.17927849 61.95703125 60.42578125 C61.11350098 61.03244629 60.2699707 61.63911133 59.40087891 62.26416016 C56.17551243 64.59610603 52.98918276 66.97736323 49.8125 69.375 C48.87019531 70.08398438 47.92789063 70.79296875 46.95703125 71.5234375 C46.31121094 72.01070313 45.66539062 72.49796875 45 73 C52.61830175 69.33835129 59.91144926 65.23387811 67.1875 60.9375 C70.23908449 59.14433983 73.29093069 57.35168941 76.34570312 55.56396484 C77.96684424 54.60875605 79.581851 53.6429078 81.18554688 52.65869141 C85.66855194 49.94696831 85.66855194 49.94696831 89.125 50.5 C92.10595707 52.05528195 94.51687502 53.73597428 97 56 C97 56.33 97 56.66 97 57 C97.86625 57.0825 98.7325 57.165 99.625 57.25 C103.47734858 58.10607746 105.848219 59.67368546 109 62 C108.21625 62.763125 107.4325 63.52625 106.625 64.3125 C103.92742283 66.90891805 103.92742283 66.90891805 102 70 C102.51949219 69.62746094 103.03898438 69.25492187 103.57421875 68.87109375 C109.254488 65.01775029 109.254488 65.01775029 112.625 64.9375 C115.67372115 66.30140157 118.29506844 68.04993306 121 70 C119.49650623 73.66786393 117.36271208 75.68910393 114.375 78.25 C113.14910156 79.30960938 113.14910156 79.30960938 111.8984375 80.390625 C111.27195313 80.92171875 110.64546875 81.4528125 110 82 C110.73605469 81.59007812 111.47210938 81.18015625 112.23046875 80.7578125 C113.20628906 80.21898437 114.18210938 79.68015625 115.1875 79.125 C116.15042969 78.59132813 117.11335937 78.05765625 118.10546875 77.5078125 C120.69739518 76.1576322 123.26761098 75.02901671 126 74 C128.64 76.31 131.28 78.62 134 81 C130.77425566 84.81224331 127.5637661 88.49821244 124 92 C124.81984375 91.48308594 125.6396875 90.96617187 126.484375 90.43359375 C127.56203125 89.77488281 128.6396875 89.11617188 129.75 88.4375 C130.81734375 87.77621094 131.8846875 87.11492187 132.984375 86.43359375 C136 85 136 85 138.21484375 85.140625 C141.16216825 86.5594683 142.95374317 88.48602732 145 91 C144.80894801 93.66942087 144.22530711 94.76442709 142.37109375 96.703125 C141.73300781 97.21359375 141.09492188 97.7240625 140.4375 98.25 C139.79683594 98.77078125 139.15617188 99.2915625 138.49609375 99.828125 C138.00238281 100.21484375 137.50867188 100.6015625 137 101 C138.01320312 100.44119141 138.01320312 100.44119141 139.046875 99.87109375 C139.93890625 99.39800781 140.8309375 98.92492187 141.75 98.4375 C143.07257813 97.72400391 143.07257813 97.72400391 144.421875 96.99609375 C147 96 147 96 149.078125 96.0546875 C151.82024284 97.40345278 153.15035951 99.27068459 155 101.6875 C155.6909375 102.58597656 156.381875 103.48445313 157.09375 104.41015625 C159.16347727 107.22210129 161.13588399 110.04848298 163 113 C159.7 116.3 156.4 119.6 153 123 C156.63 121.35 160.26 119.7 164 118 C162.70555916 121.23610209 161.61819369 123.83833455 159.8984375 126.7578125 C151.26228367 141.68545522 144.53681169 156.80252603 140.0078125 173.4609375 C139.1662582 176.41616307 138.20860954 179.17991107 137 182 C134.95825187 178.93737781 133.39904128 175.88255433 131.8125 172.5625 C131.26207031 171.42941406 130.71164063 170.29632813 130.14453125 169.12890625 C129.00084161 166.00230079 128.64829542 164.95931439 130 162 C131.28062485 160.2925002 132.6072711 158.61736259 134 157 C132.88625 157.7734375 132.88625 157.7734375 131.75 158.5625 C129 160 129 160 127.12890625 159.984375 C123.8076062 158.44865461 122.17424108 155.63401938 120.1875 152.6875 C119.76791016 152.10548828 119.34832031 151.52347656 118.91601562 150.92382812 C116.00492196 146.68907408 116.00492196 146.68907408 115.984375 143.8125 C117.3220151 141.4253269 118.94294178 140.03580924 121.0625 138.3125 C122.388313 137.22435471 123.70463685 136.12422177 125 135 C125 134.67 125 134.34 125 134 C123.87851562 134.66708984 123.87851562 134.66708984 122.734375 135.34765625 C121.74953125 135.91355469 120.7646875 136.47945312 119.75 137.0625 C118.77546875 137.63097656 117.8009375 138.19945312 116.796875 138.78515625 C114 140 114 140 111.8125 139.8359375 C108.90475034 138.4948633 107.08802594 136.37802954 105 134 C105 133.34 105 132.68 105 132 C104.4225 131.7525 103.845 131.505 103.25 131.25 C100.6997003 129.83316683 98.98214299 128.12372463 97 126 C99.05455187 121.30981088 102.3434055 118.52116507 106 115 C101.38 117.31 96.76 119.62 92 122 C89.03 120.02 86.06 118.04 83 116 C86.52752459 111.81619176 90.10061136 107.84624535 94 104 C93.05898437 104.58910156 92.11796875 105.17820312 91.1484375 105.78515625 C89.89115812 106.54515349 88.63331543 107.30421937 87.375 108.0625 C86.75753906 108.45244141 86.14007813 108.84238281 85.50390625 109.24414062 C82.27320819 111.16555579 80.59448219 112.02858087 76.75 111.84375 C73.62061684 110.88359835 70.86784498 109.57048654 68 108 C69.50349377 104.33213607 71.63728792 102.31089607 74.625 99.75 C75.85089844 98.69039062 75.85089844 98.69039062 77.1015625 97.609375 C77.72804687 97.07828125 78.35453125 96.5471875 79 96 C77.06126858 96.95583968 75.1240567 97.91476192 73.1875 98.875 C72.10855469 99.40867187 71.02960938 99.94234375 69.91796875 100.4921875 C66.92161735 101.97221139 66.92161735 101.97221139 64 104 C59.11691891 104.10973216 54.39698453 103.12757316 50 101 C50.95729916 99.87411986 51.91587895 98.7493285 52.875 97.625 C53.40867187 96.99851562 53.94234375 96.37203125 54.4921875 95.7265625 C55.61432007 94.44163349 56.79371975 93.20628025 58 92 C56.83597656 92.79277344 56.83597656 92.79277344 55.6484375 93.6015625 C47.72298178 98.50059121 43.074949 99.67662504 33.60546875 97.68359375 C32.74566406 97.45800781 31.88585937 97.23242188 31 97 C31 96.01 31 95.02 31 94 C30.01 94.66 29.02 95.32 28 96 C25.76342773 96.28710938 25.76342773 96.28710938 23.18359375 96.34375 C22.25482422 96.37339844 21.32605469 96.40304687 20.36914062 96.43359375 C18.41080929 96.47795302 16.45247595 96.5222235 14.49414062 96.56640625 C13.56666016 96.59605469 12.63917969 96.62570312 11.68359375 96.65625 C10.40826782 96.68428711 10.40826782 96.68428711 9.10717773 96.71289062 C6.78353908 96.81301444 6.78353908 96.81301444 5 99 C4.66125547 101.5699724 4.66125547 101.5699724 4.65625 104.55859375 C4.61177734 106.22051758 4.61177734 106.22051758 4.56640625 107.91601562 C4.53353516 109.65915039 4.53353516 109.65915039 4.5 111.4375 C4.45666189 113.72804675 4.40496231 116.01845497 4.34375 118.30859375 C4.32505859 119.32751709 4.30636719 120.34644043 4.28710938 121.39624023 C4 124 4 124 2 127 C-2.90651373 127.70093053 -5.45728123 126.5074057 -9.375 123.625 C-10.24898437 122.99851562 -11.12296875 122.37203125 -12.0234375 121.7265625 C-13.00183594 120.87191406 -13.00183594 120.87191406 -14 120 C-14 119.34 -14 118.68 -14 118 C-14.763125 117.731875 -15.52625 117.46375 -16.3125 117.1875 C-18.87380884 116.05575888 -20.19692938 115.08776599 -22 113 C-20.47123916 108.8600017 -17.49722082 106.77647522 -14.0625 104.25 C-13.48927002 103.81896973 -12.91604004 103.38793945 -12.32543945 102.94384766 C-10.55744615 101.6192543 -8.78058721 100.30760334 -7 99 C-6.44344727 98.59040039 -5.88689453 98.18080078 -5.31347656 97.75878906 C-2.22172466 95.48802137 0.88313404 93.23614832 4 91 C2.54105115 91.79053176 1.08291354 92.58256051 -0.375 93.375 C-1.36371094 93.90996094 -2.35242188 94.44492187 -3.37109375 94.99609375 C-6.13854685 96.50869486 -8.87011109 98.0768003 -11.59765625 99.66015625 C-12.39574707 100.11793457 -13.19383789 100.57571289 -14.01611328 101.04736328 C-15.61781544 101.9669128 -17.21399506 102.89615594 -18.80419922 103.83544922 C-19.54814941 104.25971191 -20.29209961 104.68397461 -21.05859375 105.12109375 C-21.72173584 105.5070874 -22.38487793 105.89308105 -23.06811523 106.29077148 C-25.47020245 107.1726195 -26.63704963 106.90293886 -29 106 C-30.93271748 104.16391839 -32.37051934 102.12737753 -34 100 C-32.2711195 98.58298411 -30.54188254 97.16640314 -28.8125 95.75 C-27.36810547 94.56664062 -27.36810547 94.56664062 -25.89453125 93.359375 C-23.27499477 91.22415228 -20.64270803 89.10643639 -18 87 C-18.4940332 87.31340332 -18.98806641 87.62680664 -19.49707031 87.94970703 C-21.73797504 89.35829074 -23.99341244 90.74169348 -26.25 92.125 C-27.41595703 92.86556641 -27.41595703 92.86556641 -28.60546875 93.62109375 C-29.35957031 94.07871094 -30.11367188 94.53632813 -30.890625 95.0078125 C-31.58188477 95.43723145 -32.27314453 95.86665039 -32.98535156 96.30908203 C-35 97 -35 97 -37.0925293 96.28320312 C-39.95535787 94.35730693 -42.20455356 91.86824473 -44.5625 89.375 C-49.22256599 84.5582992 -54.02411691 80.54199366 -59.625 76.81640625 C-62.27588645 74.78900132 -64.11634521 72.75135688 -66 70 C-66 69.01 -66 68.02 -66 67 C-64.25 65.39453125 -64.25 65.39453125 -62 63.8125 C-61.2575 63.28269531 -60.515 62.75289063 -59.75 62.20703125 C-59.1725 61.80871094 -58.595 61.41039062 -58 61 C-58.54269531 61.28875 -59.08539063 61.5775 -59.64453125 61.875 C-60.35996094 62.24625 -61.07539062 62.6175 -61.8125 63 C-62.52019531 63.37125 -63.22789063 63.7425 -63.95703125 64.125 C-66 65 -66 65 -69 65 C-69.40159158 60.78328838 -69.00753595 58.08064937 -66.45703125 54.62890625 C-62.76977363 50.50669062 -58.41845277 47.03914549 -54.19897461 43.48144531 C-49.14196412 39.15233317 -44.57277931 34.51562458 -40.0625 29.625 C-38.65049714 28.11387512 -37.23774384 26.60345107 -35.82421875 25.09375 C-34.5494339 23.72920895 -33.27468901 22.36463057 -32 21 C-11.1042404 -1.34016694 -11.1042404 -1.34016694 0 0 Z M-3 15 C-3.33 15.66 -3.66 16.32 -4 17 C-3.01 16.67 -2.02 16.34 -1 16 C-1.66 15.67 -2.32 15.34 -3 15 Z M40 56 C39.67 56.66 39.34 57.32 39 58 C39.99 57.67 40.98 57.34 42 57 C41.34 56.67 40.68 56.34 40 56 Z M34 91 C33.67 91.66 33.34 92.32 33 93 C33.99 92.67 34.98 92.34 36 92 C35.34 91.67 34.68 91.34 34 91 Z " fill="#69C478" transform="translate(84,218)"/>
<path d="M0 0 C3.34533609 0.51805306 6.54615093 0.76874078 9.921875 0.91015625 C38.6434021 3.21105207 66.10792979 20.64507557 84.859375 41.59765625 C106.96620922 69.68802583 114.21271249 103.47912799 110.53417969 138.71240234 C109.71232455 144.45239062 108.43474 150.02109716 106.859375 155.59765625 C106.67745605 156.26603516 106.49553711 156.93441406 106.30810547 157.62304688 C100.75624349 177.52838224 90.07584052 194.73965348 75.859375 209.59765625 C75.24835938 210.27183594 74.63734375 210.94601563 74.0078125 211.640625 C64.40915825 221.87238197 52.47046757 228.87302237 39.83740234 234.68701172 C38.4603997 235.32095641 37.09138051 235.97241221 35.72900391 236.63720703 C30.19841108 239.25747254 24.87538844 240.67739859 18.859375 241.72265625 C17.9530835 241.88805908 17.04679199 242.05346191 16.11303711 242.22387695 C8.91367356 243.50139686 1.69712212 244.45072795 -5.57421875 245.203125 C-7.88913952 245.45921153 -10.19736458 245.79124798 -12.48828125 246.2109375 C-15.140625 246.59765625 -15.140625 246.59765625 -17.140625 245.59765625 C-18.57575747 245.45860483 -20.01626661 245.37242192 -21.45703125 245.31640625 C-22.30330078 245.27902344 -23.14957031 245.24164063 -24.02148438 245.203125 C-25.81314502 245.1326591 -27.60481172 245.06234727 -29.39648438 244.9921875 C-30.24146484 244.95480469 -31.08644531 244.91742188 -31.95703125 244.87890625 C-32.73506104 244.84861328 -33.51309082 244.81832031 -34.31469727 244.78710938 C-36.140625 244.59765625 -36.140625 244.59765625 -37.140625 243.59765625 C-38.80919105 243.28347333 -40.47911405 242.97522821 -42.15429688 242.69848633 C-70.13910348 238.0483745 -95.50712055 224.15614339 -113.140625 201.59765625 C-133.38146086 173.23940184 -141.20080013 138.74204266 -135.828125 104.3046875 C-129.6802053 71.15482504 -114.10857602 40.42298115 -85.83642578 20.73828125 C-61.34199686 4.26290378 -29.38147713 -4.59350427 0 0 Z M-91.140625 36.59765625 C-91.89214844 37.273125 -92.64367187 37.94859375 -93.41796875 38.64453125 C-104.20974067 48.7345535 -110.77533841 61.00672524 -116.140625 74.59765625 C-116.86221175 76.12210061 -117.59047665 77.64341864 -118.328125 79.16015625 C-120.42370076 83.79476987 -121.41007352 88.61591141 -122.4296875 93.58203125 C-123.140625 96.59765625 -123.140625 96.59765625 -124.15625 99.01171875 C-125.42868865 102.3543949 -125.85833016 105.69318668 -126.265625 109.22265625 C-126.3490918 109.93413818 -126.43255859 110.64562012 -126.51855469 111.37866211 C-127.74001915 122.40798767 -126.83643494 132.63377394 -125.140625 143.59765625 C-124.9240625 145.07298828 -124.9240625 145.07298828 -124.703125 146.578125 C-122.61402194 159.50445016 -117.49458301 170.30858522 -111.140625 181.59765625 C-110.480625 181.59765625 -109.820625 181.59765625 -109.140625 181.59765625 C-109.099375 182.27828125 -109.058125 182.95890625 -109.015625 183.66015625 C-107.75517192 187.89167731 -105.07580094 190.38530874 -102.140625 193.59765625 C-101.28133609 194.65601796 -100.42679312 195.71825918 -99.578125 196.78515625 C-97.26081338 199.45897735 -94.9272707 201.43800583 -92.140625 203.59765625 C-90.965 204.80421875 -90.965 204.80421875 -89.765625 206.03515625 C-84.64179239 211.2865879 -84.64179239 211.2865879 -78.140625 213.59765625 C-77.810625 214.58765625 -77.480625 215.57765625 -77.140625 216.59765625 C-74.83114942 218.14995034 -74.83114942 218.14995034 -72.015625 219.53515625 C-68.83319574 221.1918193 -65.69359347 222.83875131 -62.640625 224.72265625 C-55.67495903 228.45426302 -48.09843464 230.70151425 -40.52734375 232.88671875 C-38.78785805 233.40486343 -37.06789891 233.98993302 -35.36328125 234.61328125 C-11.44593988 241.91894189 18.31498627 238.3288521 40.44921875 227.4140625 C52.46166803 221.01567886 63.35540893 213.31190426 71.859375 202.59765625 C72.56835938 201.7365625 73.27734375 200.87546875 74.0078125 199.98828125 C87.99373287 182.3268801 95.44755408 160.66951316 98.859375 138.59765625 C99.045 137.83453125 99.230625 137.07140625 99.421875 136.28515625 C100.11173468 132.04744677 100.00670463 127.82093182 99.984375 123.53515625 C99.98026611 122.59575195 99.97615723 121.65634766 99.97192383 120.68847656 C99.90352467 106.96371213 99.90352467 106.96371213 96.609375 93.7421875 C95.83762698 91.5354705 95.36552189 89.39115221 94.921875 87.09765625 C93.5142254 80.3878598 90.54570834 74.34833626 86.859375 68.59765625 C86.30443359 67.65599609 86.30443359 67.65599609 85.73828125 66.6953125 C85.32449219 66.00308594 84.91070312 65.31085938 84.484375 64.59765625 C84.10539063 63.95828125 83.72640625 63.31890625 83.3359375 62.66015625 C81.44123537 60.01358819 79.19939078 57.85158449 76.859375 55.59765625 C75.86309082 56.2618457 75.86309082 56.2618457 74.84667969 56.93945312 C63.51757812 64.4921875 52.18847656 72.04492187 40.859375 79.59765625 C41.09841553 80.91624634 41.09841553 80.91624634 41.34228516 82.26147461 C43.82757586 98.29617593 43.27810055 114.05874213 33.546875 127.47265625 C32.34914571 128.87512559 31.12042124 130.25183379 29.859375 131.59765625 C29.28703125 132.21125 28.7146875 132.82484375 28.125 133.45703125 C19.14079109 142.13408772 7.84861914 146.09339591 -4.15625 148.28515625 C-5.14109375 148.71828125 -6.1259375 149.15140625 -7.140625 149.59765625 C-8.53069315 153.0689347 -8.53069315 153.0689347 -9.140625 156.59765625 C-12.26074174 159.0722316 -13.91395134 158.59765625 -18.140625 158.59765625 C-18.140625 155.29765625 -18.140625 151.99765625 -18.140625 148.59765625 C-14.43451239 146.93160562 -11.23329385 146.30148412 -7.203125 145.91015625 C5.44235702 144.06064698 15.59507915 137.80371496 23.30859375 127.69921875 C31.56250341 115.55382616 33.76692546 100.42330889 31.24609375 86.1171875 C27.97679394 74.06254458 20.06539933 62.9134096 9.125 56.59619141 C7.20250187 55.56890612 5.2629546 54.60122739 3.296875 53.66015625 C2.68384521 53.3652832 2.07081543 53.07041016 1.43920898 52.76660156 C-8.64508348 48.25008448 -22.07143533 47.66546012 -32.390625 51.53515625 C-42.50260559 56.31438339 -50.06873251 64.02032144 -54.25390625 74.34375 C-56.14027697 79.61872849 -57.33654189 84.5997431 -58.015625 90.16015625 C-58.76913935 95.30692835 -58.76913935 95.30692835 -62.015625 97.84765625 C-65.140625 98.59765625 -65.140625 98.59765625 -69.140625 98.59765625 C-71.87404627 89.55633974 -66.41767874 80.83085785 -62.328125 72.91015625 C-53.32992666 57.1056284 -41.98405419 50.11940166 -24.83984375 44.8984375 C-20.17765631 43.66028019 -16.19996972 43.52842649 -11.41577148 43.79174805 C7.8034453 44.63067525 22.54839646 32.83386302 37.859375 22.59765625 C26.3493498 12.20150445 6.82235204 8.58677006 -8.140625 7.59765625 C-8.89762695 7.54706055 -9.65462891 7.49646484 -10.43457031 7.44433594 C-41.88308191 5.68948122 -68.36258501 15.09928143 -91.140625 36.59765625 Z M40.00390625 32.97265625 C39.01145149 33.6385376 39.01145149 33.6385376 37.99894714 34.31787109 C35.88550667 35.73803171 33.77868563 37.16768343 31.671875 38.59765625 C30.2406598 39.56182971 28.80902411 40.52537932 27.37695312 41.48828125 C23.86617252 43.85086 20.36129878 46.22197138 16.859375 48.59765625 C19.87971215 49.98504032 19.87971215 49.98504032 22.72265625 48.27416992 C23.86089844 47.6113501 24.99914062 46.94853027 26.171875 46.265625 C26.78200439 45.91381668 27.39213379 45.56200836 28.02075195 45.19953918 C29.97262904 44.07087231 31.91586443 42.92815758 33.859375 41.78515625 C35.16874266 41.02578126 36.4786329 40.26730658 37.7890625 39.50976562 C44.40775771 35.68953161 44.40775771 35.68953161 50.859375 31.59765625 C50.364375 30.11265625 50.364375 30.11265625 49.859375 28.59765625 C45.71911182 28.59765625 43.30750417 30.71703452 40.00390625 32.97265625 Z M58.859375 37.59765625 C58.529375 38.25765625 58.199375 38.91765625 57.859375 39.59765625 C59.179375 38.93765625 60.499375 38.27765625 61.859375 37.59765625 C60.869375 37.59765625 59.879375 37.59765625 58.859375 37.59765625 Z M55.859375 39.59765625 C55.529375 40.25765625 55.199375 40.91765625 54.859375 41.59765625 C55.849375 41.26765625 56.839375 40.93765625 57.859375 40.59765625 C57.199375 40.26765625 56.539375 39.93765625 55.859375 39.59765625 Z M63.9375 48.08203125 C63.15890625 48.60539062 62.3803125 49.12875 61.578125 49.66796875 C60.7634375 50.22226562 59.94875 50.7765625 59.109375 51.34765625 C58.31015625 51.88648438 57.5109375 52.4253125 56.6875 52.98046875 C55.12706194 54.03273784 53.56777952 55.08672308 52.00976562 56.14257812 C49.30204924 57.97477495 46.58233109 59.78820801 43.859375 61.59765625 C44.519375 61.92765625 45.179375 62.25765625 45.859375 62.59765625 C50.05994391 60.65477708 53.9959465 58.19057311 57.984375 55.84765625 C59.68787109 54.87699219 59.68787109 54.87699219 61.42578125 53.88671875 C63.03646484 52.94699219 63.03646484 52.94699219 64.6796875 51.98828125 C65.67242676 51.41110352 66.66516602 50.83392578 67.68798828 50.23925781 C68.4045459 49.6975293 69.12110352 49.15580078 69.859375 48.59765625 C69.859375 47.60765625 69.859375 46.61765625 69.859375 45.59765625 C67.19369932 45.59765625 66.13966273 46.59212581 63.9375 48.08203125 Z " fill="#272727" transform="translate(269.140625,5.40234375)"/>
<path d="M0 0 C2.48024711 1.49125504 4.74937514 3.18393383 7 5 C3.46217842 7.89845623 -0.17017514 10.54596471 -3.95703125 13.109375 C-4.50485764 13.48104797 -5.05268402 13.85272095 -5.61711121 14.23565674 C-7.34759403 15.40905712 -9.08000589 16.57957183 -10.8125 17.75 C-11.99426993 18.55059041 -13.17591181 19.35136987 -14.35742188 20.15234375 C-17.2368048 22.10374932 -20.11792368 24.05257388 -23 26 C-14.54550336 21.97020032 -6.62303815 17.24462541 1.31640625 12.2890625 C2.71826172 11.43828125 2.71826172 11.43828125 4.1484375 10.5703125 C5.40406494 9.79324951 5.40406494 9.79324951 6.68505859 9.00048828 C9 8 9 8 11.19677734 8.26489258 C14.34194999 9.54706356 16.472412 11.75963791 19 14 C18.67 14.66 18.34 15.32 18 16 C18.7425 16.0825 19.485 16.165 20.25 16.25 C23.51221354 17.1396946 24.80954878 18.48503749 27 21 C25.6194881 24.30925903 24.25732273 25.80557581 21.2265625 27.69140625 C20.1128125 28.39620117 20.1128125 28.39620117 18.9765625 29.11523438 C18.20054687 29.59283203 17.42453125 30.07042969 16.625 30.5625 C15.09560364 31.52093883 13.56693422 32.48053882 12.0390625 33.44140625 C11.02126709 34.07091187 11.02126709 34.07091187 9.98291016 34.71313477 C7.91462174 36.05540862 5.95610793 37.49998932 4 39 C4.70608398 38.5654248 5.41216797 38.13084961 6.13964844 37.68310547 C9.33320433 35.73032112 12.54113807 33.80252004 15.75 31.875 C17.41675781 30.84826172 17.41675781 30.84826172 19.1171875 29.80078125 C20.72207031 28.84365234 20.72207031 28.84365234 22.359375 27.8671875 C23.34389648 27.27019043 24.32841797 26.67319336 25.34277344 26.05810547 C28 25 28 25 30.21191406 25.65673828 C32.60232569 27.45248443 34.23409779 29.60341843 36 32 C32.65948572 35.63441655 28.94313654 38.2332818 24.86328125 40.94921875 C24.18323532 41.40730423 23.50318939 41.86538971 22.80253601 42.33735657 C20.64199727 43.79163307 18.47744395 45.23979151 16.3125 46.6875 C14.13764855 48.14708191 11.96364579 49.60791252 9.79032898 51.06977844 C8.44033186 51.97728192 7.08929475 52.88324056 5.73713684 53.78752136 C2.72452266 55.71142195 2.72452266 55.71142195 0 58 C0.31455366 59.67031281 0.65160996 61.33641554 1 63 C2.23243968 79.38676757 2.05208125 93.91691447 -9.07421875 106.94921875 C-18.88002724 117.39150973 -30.71708393 124.45812511 -45 127 C-46.32 127 -47.64 127 -49 127 C-48.938125 127.928125 -48.87625 128.85625 -48.8125 129.8125 C-49 133 -49 133 -50 134.8125 C-53.22307959 136.72620351 -56.27517179 136.7596885 -60 137 C-61.66561399 135.33438601 -61.17115945 133.34037295 -61.1875 131.0625 C-61.20167969 130.16660156 -61.21585938 129.27070313 -61.23046875 128.34765625 C-61 126 -61 126 -59 124 C-57.16812551 123.67586696 -55.33354522 123.36170712 -53.48974609 123.11425781 C-41.02839177 121.43535723 -28.954944 117.35940448 -21 107 C-12.09785583 95.20591635 -10.01386164 81.4490707 -11 67 C-13.07512814 55.22331736 -19.2859426 45.21533617 -28.53515625 37.6328125 C-31.73529342 35.51291181 -35.04312729 33.78675318 -38.5 32.125 C-39.11689697 31.82625977 -39.73379395 31.52751953 -40.36938477 31.21972656 C-49.59951808 27.04271046 -61.50170247 26.33056942 -71.25390625 28.8359375 C-81.23877884 32.63605504 -89.41950101 39.22826883 -94 49 C-96.48533776 55.11775448 -98.06064356 60.9412523 -98.8125 67.5 C-99.54526749 72.49197852 -99.54526749 72.49197852 -101.5 74.67578125 C-104.3696177 76.47547684 -106.5789196 77.03583663 -109.9375 76.75 C-110.9584375 76.37875 -110.9584375 76.37875 -112 76 C-114.73342127 66.95868349 -109.27705374 58.2332016 -105.1875 50.3125 C-96.03122328 34.24803497 -84.14807436 26.6193797 -66.703125 21.3046875 C-62.03852798 20.06384502 -58.06197151 19.93084161 -53.27490234 20.19384766 C-37.20667214 20.89674233 -25.77069766 13.21509368 -12.77294922 4.79345703 C-4.14178409 -0.78891126 -4.14178409 -0.78891126 0 0 Z M14 17 C13.67 17.66 13.34 18.32 13 19 C13.99 18.67 14.98 18.34 16 18 C15.34 17.67 14.68 17.34 14 17 Z " fill="#282929" transform="translate(311,28)"/>
<path d="M0 0 C3.2666088 1.3999752 5.53157644 3.58338594 8.1875 5.9375 C7.8575 6.5975 7.5275 7.2575 7.1875 7.9375 C7.93 8.02 8.6725 8.1025 9.4375 8.1875 C12.69971354 9.0771946 13.99704878 10.42253749 16.1875 12.9375 C14.8069881 16.24675903 13.44482273 17.74307581 10.4140625 19.62890625 C9.3003125 20.33370117 9.3003125 20.33370117 8.1640625 21.05273438 C7.38804687 21.53033203 6.61203125 22.00792969 5.8125 22.5 C4.28310364 23.45843883 2.75443422 24.41803882 1.2265625 25.37890625 C0.54803223 25.79857666 -0.13049805 26.21824707 -0.82958984 26.65063477 C-2.89787826 27.99290862 -4.85639207 29.43748932 -6.8125 30.9375 C-6.10641602 30.5029248 -5.40033203 30.06834961 -4.67285156 29.62060547 C-1.47929567 27.66782112 1.72863807 25.74002004 4.9375 23.8125 C6.04867187 23.12800781 7.15984375 22.44351563 8.3046875 21.73828125 C9.37460937 21.10019531 10.44453125 20.46210937 11.546875 19.8046875 C13.02365723 18.90919189 13.02365723 18.90919189 14.53027344 17.99560547 C17.1875 16.9375 17.1875 16.9375 19.39941406 17.59423828 C21.78982569 19.38998443 23.42159779 21.54091843 25.1875 23.9375 C21.85648828 27.54666137 18.16177561 30.18641235 14.12109375 32.921875 C13.44579117 33.38233215 12.77048859 33.84278931 12.07472229 34.31719971 C10.65331776 35.28419969 9.23034735 36.24890154 7.8059082 37.21142578 C5.62329993 38.68865064 3.44921843 40.17786266 1.27539062 41.66796875 C-0.10887394 42.60750949 -1.49362308 43.54633676 -2.87890625 44.484375 C-3.52896133 44.93117615 -4.17901642 45.37797729 -4.84877014 45.83831787 C-9.4687848 48.9375 -9.4687848 48.9375 -12.8125 48.9375 C-13.17601562 48.08027344 -13.53953125 47.22304687 -13.9140625 46.33984375 C-16.88689627 39.57855259 -19.78346819 34.32574837 -24.8125 28.9375 C-24.8125 28.2775 -24.8125 27.6175 -24.8125 26.9375 C-25.369375 26.69 -25.92625 26.4425 -26.5 26.1875 C-29.21221127 24.72143985 -31.44837365 22.90760529 -33.8125 20.9375 C-32.43596771 16.80790312 -30.46127984 16.31916847 -26.6953125 14.21484375 C-26.08235321 13.86869522 -25.46939392 13.52254669 -24.83786011 13.16590881 C-22.87581785 12.0602309 -20.90697898 10.96736654 -18.9375 9.875 C-16.97679212 8.77633992 -15.01752984 7.67514076 -13.05856323 6.57337952 C-11.27721201 5.57332243 -9.492444 4.57935879 -7.70751953 3.58569336 C-1.32883379 -0.04582185 -1.32883379 -0.04582185 0 0 Z M3.1875 8.9375 C2.8575 9.5975 2.5275 10.2575 2.1875 10.9375 C3.1775 10.6075 4.1675 10.2775 5.1875 9.9375 C4.5275 9.6075 3.8675 9.2775 3.1875 8.9375 Z " fill="#86A8AE" transform="translate(321.8125,36.0625)"/>
<path d="M0 0 C2.48024711 1.49125504 4.74937514 3.18393383 7 5 C1.93957413 9.11094747 -3.32631192 12.89593077 -8.67382812 16.61987305 C-9.80977566 17.4162427 -10.94034332 18.22034082 -12.06542969 19.03198242 C-13.70474564 20.21325421 -15.36394474 21.36677646 -17.0234375 22.51953125 C-18.00231934 23.21151611 -18.98120117 23.90350098 -19.98974609 24.61645508 C-24.6226191 26.74577311 -28.19540743 25.61135177 -32.87109375 24.02734375 C-33.71800781 23.66769531 -34.56492187 23.30804688 -35.4375 22.9375 C-36.30246094 22.57527344 -37.16742188 22.21304688 -38.05859375 21.83984375 C-38.69925781 21.56269531 -39.33992188 21.28554688 -40 21 C-36.85453715 18.5254374 -33.56891695 16.51929888 -30.09765625 14.53125 C-28.96005859 13.87769531 -27.82246094 13.22414063 -26.65039062 12.55078125 C-25.45448782 11.86708125 -24.25852373 11.18348843 -23.0625 10.5 C-20.71956978 9.15708933 -18.37740095 7.81285647 -16.03515625 6.46875 C-14.9975415 5.87513672 -13.95992676 5.28152344 -12.89086914 4.66992188 C-11.00168646 3.57862811 -9.12740782 2.46100238 -7.27124023 1.31445312 C-4.44184139 -0.32302762 -3.22220642 -0.6137536 0 0 Z " fill="#85A7AD" transform="translate(311,28)"/>
<path d="M0 0 C2.625 0.375 2.625 0.375 5 1 C5 1.99 5 2.98 5 4 C5.7425 4.0825 6.485 4.165 7.25 4.25 C10.54302595 5.14809799 11.85976788 6.38416074 14 9 C14 9.66 14 10.32 14 11 C11.37785672 12.50519387 8.75255792 14.00431319 6.125 15.5 C5.00544922 16.14388672 5.00544922 16.14388672 3.86328125 16.80078125 C3.14785156 17.20683594 2.43242187 17.61289063 1.6953125 18.03125 C1.03547363 18.40830078 0.37563477 18.78535156 -0.30419922 19.17382812 C-2 20 -2 20 -4 20 C-4.054348 17.9377952 -4.09294961 15.87517184 -4.125 13.8125 C-4.14820313 12.66394531 -4.17140625 11.51539063 -4.1953125 10.33203125 C-3.93738682 5.93181909 -3.13095049 3.13095049 0 0 Z " fill="#D5405D" transform="translate(428,218)"/>
<path d="M0 0 C1.72584734 1.72584734 1.2533507 3.96209367 1.3125 6.3125 C1.26607655 9.88246357 1.22023809 11.61238097 -0.5625 14.75 C-4.07178131 16.54963144 -6.26411481 16.03774589 -10 15 C-12.33909307 11.4913604 -12.41291057 10.12910567 -12 6 C-8.99842491 -0.1395854 -6.6458808 -0.24166839 0 0 Z " fill="#292A2A" transform="translate(261,193)"/>
<path d="M0 0 C0.33 0.99 0.66 1.98 1 3 C-6.5 4.5 -6.5 4.5 -14 6 C-6.25702247 -0.27808989 -6.25702247 -0.27808989 0 0 Z " fill="#61BA6F" transform="translate(85,209)"/>
<path d="M0 0 C0.66 0.33 1.32 0.66 2 1 C2 2.66666667 2 4.33333333 2 6 C0.35 6.66 -1.3 7.32 -3 8 C-2.74438677 5.6568787 -2.40729228 3.32156597 -2 1 C-1.34 0.67 -0.68 0.34 0 0 Z " fill="#6BB272" transform="translate(236,395)"/>
<path d="M0 0 C3.63 0 7.26 0 11 0 C8 3 8 3 4.9375 3.375 C3.968125 3.25125 2.99875 3.1275 2 3 C1.34 2.01 0.68 1.02 0 0 Z " fill="#66BC73" transform="translate(76,351)"/>
<path d="M0 0 C2.97 0 5.94 0 9 0 C7.515 1.485 7.515 1.485 6 3 C2.8125 2.6875 2.8125 2.6875 0 2 C0 1.34 0 0.68 0 0 Z " fill="#718B8F" transform="translate(252,249)"/>
</svg>
